<?xml version="1.0" standalone="no"?>
<!DOCTYPE svg PUBLIC "-//W3C//DTD SVG 20010904//EN"
 "http://www.w3.org/TR/2001/REC-SVG-20010904/DTD/svg10.dtd">
<svg version="1.0" xmlns="http://www.w3.org/2000/svg"
 width="700.000000pt" height="700.000000pt" viewBox="0 0 700.000000 700.000000"
 preserveAspectRatio="xMidYMid meet">
<metadata>
Created by potrace 1.14, written by Peter Selinger 2001-2017
</metadata>
<g transform="translate(0.000000,700.000000) scale(0.100000,-0.100000)"
fill="#000000" stroke="none">
<path d="M505 6833 c-74 -9 -255 -56 -255 -65 0 -6 9 -27 20 -47 10 -20 76
-166 145 -326 70 -159 136 -310 147 -335 11 -25 43 -97 70 -160 28 -63 59
-135 71 -160 11 -25 43 -99 72 -165 29 -66 64 -145 78 -175 13 -30 46 -104 72
-165 26 -60 56 -128 66 -150 30 -66 211 -478 219 -500 4 -11 20 -47 35 -80 15
-33 49 -109 75 -170 26 -60 57 -130 68 -155 11 -25 46 -103 77 -175 31 -71 67
-152 79 -180 13 -27 45 -101 72 -163 27 -63 56 -117 64 -122 8 -4 33 -11 54
-14 105 -17 280 -91 366 -154 242 -181 304 -518 158 -870 -23 -56 -35 -73 -47
-69 -9 3 -54 16 -102 30 -309 91 -644 15 -849 -194 -53 -55 -114 -141 -131
-188 -6 -14 -17 -39 -24 -56 -29 -63 -43 -158 -40 -269 3 -121 6 -141 36 -230
44 -130 155 -278 245 -328 l31 -17 -5 118 c-6 159 13 237 74 298 24 23 57 46
76 51 98 28 294 -18 427 -100 110 -68 147 -99 371 -309 168 -158 242 -213 370
-275 41 -20 81 -39 88 -43 8 -3 25 -32 37 -64 66 -162 189 -384 281 -507 101
-136 254 -229 369 -224 17 1 42 2 58 3 15 0 27 6 27 12 0 6 -25 46 -55 89 -30
43 -55 81 -55 85 0 3 15 -5 33 -18 89 -68 237 -108 383 -104 121 4 137 11 99
43 -46 40 -133 123 -141 135 -3 6 5 4 19 -5 29 -20 175 -71 233 -82 69 -13
197 -8 252 10 63 21 132 59 155 84 16 17 11 21 -96 71 -61 29 -152 72 -202 96
-49 23 -126 60 -170 80 -44 21 -149 71 -234 111 -84 41 -157 74 -162 74 -28 0
-273 221 -339 306 -43 55 -140 212 -140 226 0 5 28 -19 63 -53 110 -109 251
-216 352 -267 61 -30 161 -62 250 -78 79 -14 260 -19 288 -8 11 4 -4 23 -51
67 -36 34 -97 92 -136 129 l-71 67 80 -40 c126 -61 176 -71 380 -74 99 -1 216
3 260 9 l80 11 -165 124 c-187 140 -186 139 -145 119 17 -8 68 -25 115 -38
144 -38 315 -33 493 14 62 17 207 83 207 94 0 4 -28 22 -63 41 -329 182 -418
232 -397 227 340 -90 588 -77 825 41 71 36 205 124 225 148 9 10 -10 20 -92
45 -216 66 -424 131 -442 139 -10 4 44 6 120 5 129 -2 224 9 309 34 58 18 191
76 250 111 63 36 178 125 207 160 32 38 71 101 66 107 -7 6 -28 10 -158 24
-58 6 -121 14 -140 16 -19 2 -64 7 -100 10 -36 4 -74 10 -85 15 -18 7 -18 8 5
9 14 1 32 3 40 5 8 2 27 6 41 9 118 25 264 86 361 152 58 40 151 129 198 191
64 84 129 247 145 362 l7 53 -48 -6 c-27 -3 -60 -8 -74 -11 -14 -3 -50 -8 -80
-11 -30 -3 -57 -7 -60 -9 -3 -2 -29 -6 -59 -10 -30 -4 -61 -8 -70 -10 -9 -1
-36 -6 -61 -9 l-45 -7 70 37 c160 84 312 197 410 302 88 95 169 269 195 422
15 81 20 194 10 211 -7 10 -165 -44 -335 -115 -16 -7 -59 -23 -95 -36 -36 -13
-71 -28 -78 -33 -7 -5 -15 -8 -17 -5 -3 3 27 32 67 66 268 225 393 516 392
917 0 122 -16 276 -35 332 l-10 32 -107 -82 c-59 -44 -109 -84 -112 -87 -3 -3
-79 -61 -170 -129 -157 -119 -163 -122 -119 -70 127 151 229 331 275 486 34
116 38 291 10 428 -26 126 -59 215 -127 345 -48 91 -140 220 -158 220 -4 0
-47 -50 -96 -111 -48 -62 -94 -119 -101 -128 -42 -51 -408 -510 -422 -530 -9
-13 -22 -28 -27 -35 -18 -20 -179 -222 -205 -256 -14 -18 -29 -38 -35 -44 -12
-13 -111 -137 -644 -805 -389 -487 -402 -503 -396 -458 23 167 0 372 -56 505
-18 42 -33 53 -42 30 -7 -21 -129 -188 -141 -195 -6 -4 -4 4 5 17 43 68 64
281 39 396 -31 141 -98 262 -206 373 -38 39 -67 61 -72 56 -5 -6 -31 -59 -58
-120 -27 -60 -59 -130 -71 -155 -22 -44 -22 -44 -15 -10 9 46 9 241 -1 305
-28 201 -128 392 -275 530 -50 46 -162 124 -179 125 -6 0 -14 -23 -18 -52 -4
-29 -9 -61 -11 -72 -2 -10 -6 -44 -9 -75 -4 -31 -8 -63 -10 -71 -2 -8 -7 -42
-11 -75 -3 -33 -7 -61 -9 -63 -2 -2 -6 25 -10 60 -27 252 -128 432 -340 603
-98 79 -242 166 -343 206 l-23 9 6 -178 6 -177 -36 80 c-69 158 -176 284 -320
380 -70 46 -108 67 -200 105 -110 47 -375 99 -375 74 0 -4 25 -95 55 -203 31
-108 58 -205 61 -216 3 -11 -15 17 -41 61 -149 259 -308 395 -515 439 -70 16
-307 27 -375 18z"/>
</g>
</svg>
