<svg xmlns="http://www.w3.org/2000/svg" width="15" height="16" viewBox="0 0 15 16" fill="none">
<path d="M8.293 2.86408C8.48053 2.6766 8.73484 2.57129 9 2.57129C9.26516 2.57129 9.51947 2.6766 9.707 2.86408L14.207 7.36408C14.3945 7.5516 14.4998 7.80591 14.4998 8.07108C14.4998 8.33624 14.3945 8.59055 14.207 8.77808L9.707 13.2781C9.5184 13.4602 9.2658 13.561 9.0036 13.5587C8.7414 13.5565 8.49059 13.4513 8.30518 13.2659C8.11977 13.0805 8.0146 12.8297 8.01233 12.5675C8.01005 12.3053 8.11084 12.0527 8.293 11.8641L11 9.07108H1.5C1.23478 9.07108 0.98043 8.96572 0.792893 8.77818C0.605357 8.59065 0.5 8.33629 0.5 8.07108C0.5 7.80586 0.605357 7.55151 0.792893 7.36397C0.98043 7.17643 1.23478 7.07108 1.5 7.07108H11L8.293 4.27808C8.10553 4.09055 8.00021 3.83624 8.00021 3.57108C8.00021 3.30591 8.10553 3.0516 8.293 2.86408Z" fill="#18181B"/>
</svg>