<svg xmlns="http://www.w3.org/2000/svg" width="203" height="203" viewBox="0 0 203 203" fill="none">
  <path d="M49.6961 47.5748C49.1103 46.989 48.1605 46.989 47.5748 47.5748C46.989 48.1605 46.989 49.1103 47.5748 49.6961L49.6961 47.5748ZM153.304 155.425C153.89 156.011 154.839 156.011 155.425 155.425C156.011 154.839 156.011 153.89 155.425 153.304L153.304 155.425ZM101.5 176.125C60.2857 176.125 26.875 142.714 26.875 101.5H23.875C23.875 144.371 58.6289 179.125 101.5 179.125V176.125ZM26.875 101.5C26.875 60.2857 60.2857 26.875 101.5 26.875V23.875C58.6289 23.875 23.875 58.6289 23.875 101.5H26.875ZM101.5 26.875C142.714 26.875 176.125 60.2857 176.125 101.5H179.125C179.125 58.6289 144.371 23.875 101.5 23.875V26.875ZM176.125 101.5C176.125 142.714 142.714 176.125 101.5 176.125V179.125C144.371 179.125 179.125 144.371 179.125 101.5H176.125ZM47.5748 49.6961L153.304 155.425L155.425 153.304L49.6961 47.5748L47.5748 49.6961Z" fill="#F04438"/>
</svg>