<svg xmlns="http://www.w3.org/2000/svg" width="38" height="22" viewBox="0 0 38 22" fill="none">
    <path
        d="M32.2716 7.93333L32.2789 7.92389L30.1737 6.12389L29.5105 6.98722L30.5984 7.91722C30.3285 8.09033 30.1143 8.34513 29.9834 8.64851C29.8526 8.95189 29.8112 9.28981 29.8647 9.61833C29.9437 10.1178 30.2695 10.5494 30.6911 10.7911C31.1621 11.0617 31.5753 11.0367 31.9426 10.8989L31.9347 14.3333C31.9354 14.4253 31.9143 14.516 31.8733 14.5972C31.8324 14.6785 31.7729 14.7476 31.7003 14.7985C31.6277 14.8493 31.5442 14.8803 31.4574 14.8885C31.3706 14.8967 31.2832 14.8819 31.2032 14.8455C31.1405 14.8172 31.0836 14.7763 31.0358 14.725C30.9871 14.6735 30.9486 14.6124 30.9223 14.5452C30.896 14.478 30.8825 14.406 30.8826 14.3333L30.8947 13.2222C30.8953 13.0035 30.8548 12.7869 30.7755 12.5849C30.6963 12.3828 30.5799 12.1993 30.4332 12.045C30.2865 11.8899 30.1124 11.7668 29.9206 11.6828C29.7289 11.5988 29.5234 11.5556 29.3158 11.5555H28.7895V7.11111C28.7895 6.81642 28.6786 6.53381 28.4812 6.32544C28.2838 6.11706 28.016 6 27.7368 6H24.0526C23.7735 6 23.5057 6.11706 23.3083 6.32544C23.1109 6.53381 23 6.81642 23 7.11111V14.8889C23 15.1836 23.1109 15.4662 23.3083 15.6746C23.5057 15.8829 23.7735 16 24.0526 16H27.7368C28.016 16 28.2838 15.8829 28.4812 15.6746C28.6786 15.4662 28.7895 15.1836 28.7895 14.8889V12.6667H29.3158C29.3874 12.6667 29.4563 12.6817 29.5216 12.71C29.6468 12.7679 29.7467 12.8737 29.8011 13.0061C29.8284 13.0745 29.8423 13.148 29.8421 13.2222L29.8295 14.3333C29.8295 14.5589 29.8711 14.7772 29.9537 14.9822C30.0332 15.1817 30.1474 15.36 30.2911 15.5105C30.4372 15.6664 30.6112 15.79 30.8031 15.874C30.9949 15.958 31.2007 16.0009 31.4084 16C31.6221 16 31.8284 15.9567 32.0232 15.8689C32.2116 15.7855 32.3811 15.665 32.5237 15.5128C32.671 15.3583 32.7879 15.1745 32.8675 14.9721C32.9471 14.7696 32.9878 14.5525 32.9874 14.3333L33 9.33333C32.9995 9.05423 32.9325 8.77975 32.8052 8.53511C32.6779 8.29048 32.4944 8.08354 32.2716 7.93333ZM27.7368 8.77777H24.0526V7.11111H27.7368V8.77777ZM31.4211 9.88888C31.2815 9.88888 31.1476 9.83035 31.0489 9.72617C30.9502 9.62198 30.8947 9.48067 30.8947 9.33333C30.8947 9.18599 30.9502 9.04468 31.0489 8.94049C31.1476 8.83631 31.2815 8.77777 31.4211 8.77777C31.5606 8.77777 31.6945 8.83631 31.7932 8.94049C31.8919 9.04468 31.9474 9.18599 31.9474 9.33333C31.9474 9.48067 31.8919 9.62198 31.7932 9.72617C31.6945 9.83035 31.5606 9.88888 31.4211 9.88888Z"
        fill="#2C6EFF" />
</svg>