<svg width="205" height="49" viewBox="0 0 205 49" fill="none" xmlns="http://www.w3.org/2000/svg">
<g id="Group 59">
<path id="icons8-hawk-100 (Traced)" fill-rule="evenodd" clip-rule="evenodd" d="M33.7614 0.972519C30.309 2.77338 28.0908 5.7197 28.0908 8.50426C28.0908 9.49333 24.2015 13.7648 14.0454 23.9295L0 37.9866L1.39648 39.2992L2.79356 40.6118L5.11924 38.2289C7.4121 35.8807 7.50758 35.8467 11.8003 35.8467H16.155V39.7265V43.6064H8.0984H0.0417749V45.6956V47.7848H23.9133H47.7847V45.6956V43.6064H39.2596H30.7339L28.8212 39.7265L26.9085 35.8467H28.5867C31.382 35.8467 35.5673 34.1133 38.1872 31.8701C41.9332 28.6635 43.196 25.75 43.5798 19.4318L43.9056 14.0597L45.8452 13.8728C47.7334 13.6908 47.7847 13.6108 47.7847 10.8656C47.7847 3.14466 40.054 -2.30867 33.7614 0.972519ZM41.8628 5.95548C44.9035 8.99671 44.3055 10.1798 39.7281 10.1798H35.849V11.9329C35.849 13.4741 36.0829 13.7081 37.7886 13.8728L39.7281 14.0597L39.7007 18.6272C39.6529 26.6657 35.0296 31.6683 27.648 31.6683H24.4086L26.8268 28.9208C30.2482 25.0325 31.6715 20.8476 31.6715 14.6733C31.6715 11.9162 31.9233 8.9973 32.2319 8.18671C33.8408 3.95406 38.7291 2.82113 41.8628 5.95548ZM28.0908 16.6371C28.0908 16.9063 27.6903 18.4738 27.2016 20.1212C25.3664 26.3016 20.4782 30.6966 14.6147 31.4379L11.6791 31.8086L19.429 23.979C26.7176 16.6144 28.0908 15.4504 28.0908 16.6371ZM24.3764 39.7265L26.2891 43.6064H23.0127H19.7358V39.7265C19.7358 36.083 19.8187 35.8467 21.0994 35.8467C22.1844 35.8467 22.8552 36.6411 24.3764 39.7265Z" fill="#18181B"/>
<g id="zerius">
<path d="M57.0404 47.7372C57.3475 47.2912 57.8081 46.6082 58.4222 45.6883C59.0642 44.7684 59.804 43.6812 60.6414 42.4268C61.4789 41.1724 62.3721 39.8203 63.3212 38.3708C64.2982 36.9212 65.2892 35.4438 66.2941 33.9384C67.327 32.4331 68.318 30.9696 69.2671 29.5479C70.2441 28.0983 71.1513 26.7603 71.9888 25.5337C72.8262 24.2793 73.552 23.206 74.1661 22.314C74.8082 21.3941 75.2827 20.725 75.5898 20.3069L76.1341 21.3941H62.1488C61.6184 21.3941 61.088 21.2965 60.5577 21.1014C60.0273 20.9062 59.5946 20.6135 59.2596 20.2233C58.9247 19.833 58.7572 19.373 58.7572 18.8434V16H62.5257V16.5436C62.5257 17.0454 62.6234 17.3381 62.8188 17.4217C63.0142 17.4774 63.3491 17.5053 63.8237 17.5053H81.9543L63.6562 44.3503L63.405 43.8485H82.4568V47.7372H57.0404Z" fill="#18181B"/>
<path d="M89.069 17.5053H108.749V21.3941H93.1306V30.5933H107.074V34.482H93.1306V43.8485H109.335V47.7372H89.069V17.5053Z" fill="#18181B"/>
<path d="M124.423 17.5053C125.959 17.5053 127.368 17.7144 128.653 18.1325C129.965 18.5228 131.095 19.1222 132.044 19.9306C133.021 20.7111 133.775 21.6868 134.305 22.8576C134.864 24.0005 135.143 25.3386 135.143 26.8718C135.143 28.0705 134.961 29.2413 134.598 30.3842C134.263 31.5271 133.691 32.5725 132.882 33.5203C132.072 34.4402 131.011 35.1929 129.699 35.7783C128.415 36.3358 126.824 36.6146 124.926 36.6146H120.446V47.7372H116.384V17.5053H124.423ZM124.842 32.7258C126.043 32.7258 127.034 32.5446 127.815 32.1822C128.625 31.8198 129.253 31.3599 129.699 30.8023C130.146 30.2169 130.467 29.5897 130.662 28.9207C130.858 28.2517 130.956 27.6244 130.956 27.039C130.956 26.4258 130.844 25.7985 130.621 25.1574C130.425 24.4884 130.09 23.8751 129.616 23.3175C129.169 22.76 128.569 22.3001 127.815 21.9377C127.089 21.5753 126.196 21.3941 125.135 21.3941H120.446V32.7258H124.842ZM129.825 35.0256L137.739 47.7372H133.049L125.01 35.1511L129.825 35.0256Z" fill="#18181B"/>
<path d="M143.985 17.5053H148.047V47.7372H143.985V17.5053Z" fill="#18181B"/>
<path d="M160.386 37.0327C160.386 38.3987 160.707 39.6252 161.349 40.7124C162.019 41.7717 162.898 42.608 163.987 43.2213C165.076 43.8345 166.304 44.1412 167.672 44.1412C169.095 44.1412 170.366 43.8345 171.482 43.2213C172.599 42.608 173.478 41.7717 174.12 40.7124C174.762 39.6252 175.083 38.3987 175.083 37.0327V17.5053H179.061V37.1582C179.061 39.3604 178.545 41.2839 177.512 42.9286C176.507 44.5733 175.139 45.8416 173.408 46.7337C171.706 47.6257 169.793 48.0717 167.672 48.0717C165.55 48.0717 163.638 47.6257 161.935 46.7337C160.233 45.8416 158.879 44.5733 157.874 42.9286C156.869 41.2839 156.366 39.3604 156.366 37.1582V17.5053H160.386V37.0327Z" fill="#18181B"/>
<path d="M203.031 22.8994C201.998 22.3697 200.867 21.9098 199.639 21.5195C198.411 21.1293 197.21 20.9341 196.038 20.9341C194.419 20.9341 193.121 21.3104 192.144 22.0631C191.195 22.8158 190.72 23.8193 190.72 25.0738C190.72 26.0216 191.027 26.83 191.641 27.499C192.255 28.1402 193.065 28.6977 194.07 29.1716C195.075 29.6455 196.122 30.0915 197.21 30.5096C198.159 30.872 199.095 31.2762 200.016 31.7223C200.937 32.1683 201.76 32.7258 202.486 33.3948C203.24 34.0639 203.826 34.8862 204.245 35.8619C204.691 36.8376 204.915 38.0502 204.915 39.4998C204.915 41.0887 204.51 42.5383 203.701 43.8485C202.919 45.1587 201.788 46.1901 200.309 46.9428C198.829 47.6954 197.071 48.0717 195.033 48.0717C193.693 48.0717 192.409 47.9184 191.181 47.6118C189.98 47.3051 188.864 46.9149 187.831 46.441C186.798 45.9392 185.877 45.4235 185.067 44.8938L186.868 41.7159C187.538 42.1898 188.306 42.6498 189.171 43.0958C190.036 43.514 190.943 43.8624 191.893 44.1412C192.842 44.3921 193.763 44.5175 194.656 44.5175C195.605 44.5175 196.54 44.3503 197.462 44.0157C198.411 43.6533 199.192 43.1098 199.806 42.385C200.421 41.6602 200.728 40.6985 200.728 39.4998C200.728 38.4683 200.448 37.6181 199.89 36.9491C199.36 36.2522 198.648 35.6668 197.755 35.1929C196.861 34.6911 195.912 34.2451 194.907 33.8548C193.958 33.4924 192.995 33.1021 192.018 32.684C191.041 32.238 190.134 31.7083 189.297 31.095C188.459 30.4539 187.789 29.6734 187.287 28.7534C186.784 27.8335 186.533 26.7185 186.533 25.4083C186.533 23.8193 186.91 22.4394 187.663 21.2686C188.445 20.0699 189.506 19.1361 190.846 18.4671C192.186 17.7701 193.721 17.3938 195.452 17.3381C197.406 17.3381 199.122 17.575 200.602 18.0489C202.109 18.5228 203.435 19.1082 204.58 19.8051L203.031 22.8994Z" fill="#18181B"/>
</g>
</g>
</svg>
