<?xml version="1.0" encoding="utf-8"?>
<!-- Generator: Adobe Illustrator 24.2.0, SVG Export Plug-In . SVG Version: 6.00 Build 0)  -->
<svg version="1.1" xmlns="http://www.w3.org/2000/svg" xmlns:xlink="http://www.w3.org/1999/xlink" x="0px" y="0px"
	 viewBox="0 0 3000 3000" style="enable-background:new 0 0 3000 3000;" xml:space="preserve">
<style type="text/css">
	.st0{display:none;}
	.st1{display:inline;}
	.st2{fill:#B7B7B7;}
	.st3{fill:#FFFF00;}
	.st4{fill:#FF9D00;}
	.st5{fill:#FF0067;}
	.st6{fill:#FF00FD;}
	.st7{fill:#00B4FF;}
	.st8{fill:#00FF06;}
	.st9{fill:#0086FF;}
	.st10{fill:#BFBFBF;}
	.st11{fill:#FFE400;}
	.st12{fill:#231F20;}
</style>
<g id="Слой_3">
</g>
<g id="Слой_4" class="st0">
	<circle class="st1" cx="1500" cy="1500" r="1457.1"/>
</g>
<g id="Слой_2">
	<g>
		<path class="st2" d="M1739.6,1282.5c-0.1,0.4-0.2,0.7-0.2,0.7l-0.2,0.3L1573,1499.5c0,0,0,0,0,0.1c0.4,1.5,6,21.4,8.6,53.3
			c2,25.2,2.2,57.9-3.4,95.1c-17.9,118.6-99.8,178.6-230.6,232.8c-16.1,6.7-32.9,13-50,18.8c-4.4,1.5-8.8,3-13.2,4.5
			c-146.6,48.2-313.3,68.4-332,70.5c-0.7,0.1-1.2,0.1-1.5,0.2c0,0-0.1,0-0.1,0c-0.1,0-0.1,0-0.1,0l0.4-0.4c0.1-0.1,0.3-0.3,0.5-0.5
			l0.4-0.5c0.3-0.3,0.6-0.6,0.9-1c0.1-0.2,0.3-0.3,0.4-0.5c4.2-5,13.2-16.3,22.9-33.5c29.1-51.5,64.7-155.2-1.6-295.7
			c-64.2-136-251.8-167.8-251.8-167.8L327.2,552.3L203.1,262.8L130.8,94.1c0-0.1,0-0.1-0.1-0.2c0-0.1-0.1-0.1-0.1-0.1
			S187.4,73.2,265,73.4c81,0.2,147.2,5.6,229.6,74.8c0.6,0.5,1.3,1.1,1.9,1.6c3,2.5,5.9,5.1,8.9,7.8c0.8,0.8,1.7,1.5,2.5,2.3
			c0.9,0.9,1.9,1.8,2.8,2.6c0.9,0.9,1.8,1.8,2.8,2.7c0.9,0.9,1.8,1.8,2.7,2.7c0.9,0.9,1.8,1.8,2.7,2.7c2.7,2.8,5.3,5.6,8,8.4
			c0.9,1,1.8,1.9,2.6,2.9c0.9,1,1.7,1.9,2.6,2.9c0.9,1,1.7,2,2.6,2.9c0.9,1,1.7,2,2.5,3c0.8,1,1.7,2,2.5,3c0.8,1,1.7,2,2.5,3
			c1.4,1.7,2.8,3.5,4.2,5.2c1.1,1.3,2.1,2.6,3.1,4c1.6,2.1,3.2,4.1,4.8,6.2c0.8,1,1.6,2.1,2.3,3.1c0.8,1.1,1.5,2.1,2.3,3.2
			c0.2,0.3,0.4,0.5,0.6,0.8c1.3,1.8,2.7,3.7,4,5.5c0,0,0,0,0,0c0.7,1.1,1.5,2.1,2.2,3.2c0,0,0,0.1,0.1,0.1c0.7,1,1.4,2.1,2.2,3.1
			c0.7,1.1,1.5,2.1,2.2,3.2c0.1,0.1,0.2,0.2,0.2,0.4c1,1.5,2,3,3,4.5c1.8,2.7,3.6,5.4,5.3,8.1c0.7,1,1.3,2.1,2,3.1
			c0,0,0,0.1,0.1,0.1c0.7,1.1,1.4,2.2,2,3.2c2.6,4.1,5.1,8.2,7.6,12.4c0.4,0.7,0.9,1.5,1.3,2.2c4.2,7.1,8.3,14.2,12.1,21.2
			c0.5,0.9,1,1.8,1.5,2.8c0.5,0.9,0.9,1.7,1.4,2.6c0.1,0.2,0.2,0.4,0.3,0.6c1.1,2,2.1,4,3.2,5.9c0.6,1.1,1.2,2.3,1.8,3.4
			c0.4,0.8,0.9,1.6,1.3,2.5c0.8,1.6,1.7,3.2,2.5,4.8c0.7,1.4,1.4,2.8,2.1,4.2c2.6,5.3,5.2,10.4,7.6,15.4c0.4,0.9,0.9,1.9,1.3,2.8
			c5.9,12.4,11,23.8,15.3,33.8c0.7,1.6,1.3,3.1,2,4.6c1.5,3.5,2.8,6.8,4.1,9.9c0.3,0.8,0.6,1.6,1,2.4c1.5,3.9,2.9,7.3,4.1,10.3
			c2.9,7.4,4.5,12,4.8,13l-81.5-291.2c0,0,148.1,15.1,261.7,103.4c83,64.6,120.3,178.8,134.3,235.7c0.3,1.2,0.6,2.3,0.8,3.5
			c4.6,18.9,6.4,30.7,6.4,30.7L969.3,250c0,0,161.2,57.2,250.7,199.1c29.7,47.1,37.9,141.2,39.6,209.2c0.5,18.7,0.5,35.4,0.3,48.6
			c-0.2,19-0.8,30.8-0.8,30.8l39.6-288.7c0,0,128.9,82.3,172.7,210.3c32.5,94.8,9.7,211.9-4.3,266.3c-4.5,17.4-8.1,28.4-8.6,30.2
			c0,0,0,0.1,0,0.1l97.8-218.2c0,0,83,64,106.2,180.5c13.8,69.5-8.4,144.7-30.5,197.4c-3,7.1-6,13.9-8.9,20.1
			c-10.1,21.6-19,37.3-23.2,44.4c0,0,0,0,0,0c-1.3,2.2-2.1,3.5-2.4,4l117.5-163.5l2.3-3.2l0.8-1.1c0.9-1.2,1.6-2.3,2.3-3.1
			c0.3-0.4,0.5-0.7,0.7-1c0.3-0.4,0.5-0.7,0.7-0.9c0.1-0.1,0.2-0.2,0.2-0.3c0.2-0.2,0.2-0.3,0.2-0.3s23.9,36.6,30.9,102.3
			C1762.9,1206,1742,1275.1,1739.6,1282.5z"/>
		<path class="st3" d="M826.1,1395.7l-30.1-8.6L237.1,360.9L130.8,94.1c0-0.1,0-0.1-0.1-0.2c0-0.1-0.1-0.1-0.1-0.1
			S187.4,73.2,265,73.4c81,0.2,147.2,5.6,229.6,74.8c0.6,0.5,1.3,1.1,1.9,1.6c3,2.5,5.9,5.1,8.9,7.8c0.8,0.8,1.7,1.5,2.5,2.3
			c0.9,0.9,1.9,1.8,2.8,2.6c0.9,0.9,1.8,1.8,2.8,2.7c0.9,0.9,1.8,1.8,2.7,2.7c0.9,0.9,1.8,1.8,2.7,2.7c2.7,2.8,5.4,5.6,8,8.4
			c0.9,1,1.8,1.9,2.6,2.9c0.9,1,1.7,1.9,2.6,2.9c0.9,1,1.7,2,2.6,2.9c0.9,1,1.7,2,2.5,3c0.8,1,1.7,2,2.5,3c0.8,1,1.7,2,2.5,3
			c1.4,1.7,2.8,3.5,4.2,5.2c1.1,1.3,2.1,2.6,3.1,4c1.6,2.1,3.2,4.1,4.8,6.2c0.8,1,1.6,2.1,2.3,3.1c0.8,1.1,1.5,2.1,2.3,3.2
			c0.2,0.3,0.4,0.5,0.6,0.8c1.3,1.8,2.7,3.7,4,5.5c0,0,0,0,0,0c0.7,1.1,1.5,2.1,2.2,3.2c0,0,0,0.1,0.1,0.1c0.7,1,1.4,2.1,2.2,3.1
			c0.7,1.1,1.5,2.1,2.2,3.2c0.1,0.1,0.2,0.2,0.2,0.4c1,1.5,2,3,3,4.5c1.8,2.7,3.6,5.4,5.3,8.1c0.7,1,1.3,2.1,2,3.1
			c0,0,0,0.1,0.1,0.1c0.7,1.1,1.4,2.2,2,3.2c2.6,4.1,5.1,8.2,7.6,12.4c0.4,0.7,0.9,1.5,1.3,2.2c4.2,7.1,8.3,14.2,12.1,21.2
			c0.5,0.9,1,1.8,1.5,2.8c0.5,0.9,0.9,1.7,1.4,2.6c0.1,0.2,0.2,0.4,0.3,0.6c1.1,2,2.1,4,3.2,5.9c0.6,1.1,1.2,2.3,1.8,3.4
			c0.4,0.8,0.9,1.6,1.3,2.5c0.8,1.6,1.7,3.2,2.5,4.8c0.7,1.4,1.4,2.8,2.1,4.2c2.6,5.3,5.2,10.4,7.6,15.4c0.4,0.9,0.9,1.9,1.3,2.8
			c5.9,12.4,11,23.8,15.3,33.8c0.7,1.6,1.3,3.1,2,4.6c1.5,3.5,2.8,6.8,4.1,9.9c0.3,0.8,0.6,1.6,1,2.4c1.5,3.9,2.9,7.3,4.1,10.3
			c32.9,111,66.1,240.2,92.4,366.7C793.3,992.2,826.1,1395.7,826.1,1395.7z"/>
		<path class="st4" d="M984.4,1467.4l-158.3-71.7c0,0-58.4-540-114.3-782.2c-22.2-96.4-135.3-496.1-135.3-496.1
			s148.1,15.1,261.7,103.4c83,64.6,120.3,178.8,134.3,235.7c5.8,26.4,7.1,31.6,7.1,31.6s4.8,383.1,15.2,540.5
			C1005.2,1186.1,984.4,1467.4,984.4,1467.4z"/>
		<path class="st5" d="M1261.8,665.3c-3.3,154.6-25.9,274-67.3,470.5c-55.3,263.1-101.4,386.7-101.4,386.7l-108.8-55.1
			c0,0,11.5-290.6,2.1-648.3c-3.3-125.9-6.8-328.3-6.8-328.3L969.3,250c0,0,161.2,57.2,250.7,199.1
			C1249.7,496.2,1260.1,597.3,1261.8,665.3z"/>
		<path class="st6" d="M1458.5,955.9c0,0,0,0.1,0,0.1c-45.4,109.8-182.7,402.3-214.6,477.9c-31.8,75.6-81.5,174.5-81.5,174.5
			s-10-25.8-38.8-56.8c-16.9-18.3-42.4-35.1-42.4-35.1s117.5-338.6,157.6-630.2c8.7-63.5,21.3-154.6,21.3-154.6l38.7-282.5
			c0,0,128.9,82.3,172.7,210.3C1514.4,784.5,1460.9,948.6,1458.5,955.9z"/>
		<path class="st7" d="M1623.1,1135.8c0,0-24,55.6-24,55.6c-44.7,79.8-468,584.3-471.5,588.7c0.7-1.7,33.1-77.9,40.4-107.4
			c7.4-29.8-5.5-64.3-5.5-64.3c0.7-20,296.1-652.4,296.1-652.4l97.8-218.2c0,0,83,64,106.2,180.5
			C1678.2,997.2,1647.5,1083.5,1623.1,1135.8z"/>
		<path class="st8" d="M1739.6,1282.5l-0.4,0.9l-8.7,19.1l-157.4,197c0,0,0,0,0,0.1c0.4,1.6,5.1,22.4,8.6,53.3
			c2,25.2,2.2,57.9-3.4,95.1c-17.9,118.6-99.8,178.6-230.6,232.8c-16.1,6.7-32.9,13-50,18.8c-4.5,1.4-9,2.9-13.2,4.5
			c-161.1,57.7-326.4,70.2-333.5,70.7c0,0-0.1,0-0.1,0c-0.1,0-0.1,0-0.1,0l0.4-0.4l0.5-0.5l0.4-0.5l175.6-193.4
			c0,0,235.8-277.5,331.3-405.9c23.7-31.9,84.1-115.2,141.1-194c0,0,0,0,0,0c50.1-69.3,97.6-135.1,115.1-159.5
			c0.8-1.1,1.6-2.2,2.3-3.2l0.8-1.1c0.9-1.2,1.6-2.3,2.3-3.1c0.3-0.4,0.5-0.7,0.7-1c0.3-0.4,0.5-0.7,0.7-0.9
			c0.1-0.1,0.2-0.2,0.2-0.3c0.2-0.2,0.2-0.3,0.2-0.3s23.9,36.6,30.9,102.3C1762.9,1206,1742,1275.1,1739.6,1282.5z"/>
		<path class="st8" d="M952.4,1974.6"/>
		<path class="st9" d="M1127.6,1778.7C1127.6,1778.8,1127.6,1778.8,1127.6,1778.7c0,0-0.3,0.2-0.6,0.7
			c-9.7,12.7-126,136.8-173.7,191.3c4.2-5,13.2-16.3,22.9-33.5c29.1-51.5,66.2-156.1-0.1-296.5c-64.2-136-253.3-166.9-253.3-166.9
			L237.1,360.9l568.1,1034.8c0,0,230.8,66,318.5,154.6C1225.2,1652.9,1129.7,1776.1,1127.6,1778.7z"/>
		<path class="st8" d="M952.4,1974.6"/>
		<path class="st10" d="M2489.9,1622.2c-9.9,4.2-15.8,6.5-16.3,6.6l209.3-31.2l0.8-0.1l70.4-10.5c0,0-27.2,148.1-117.9,219.9
			c-138.6,109.8-314.2,97.9-314.2,97.9l26.5,3.6c0,0,0,0,0,0l9.1,1.2l37.9,5.1l223.3,30.4c0,0-0.3,0.4-0.8,1.1
			c-7.9,10.8-77.7,102.2-216.1,145.7c-51.4,16.1-105.8,20.1-154.9,18.4c-3.3-0.1-6.6-0.3-9.9-0.4h0c-31.3-1.5-60.2-5.3-84.3-9.5h0
			c-1.7-0.3-3.4-0.6-5.1-0.9c-1.1-0.2-2.1-0.4-3.2-0.6c-4.8-0.9-9.4-1.8-13.8-2.7c-0.5-0.1-1-0.2-1.4-0.3c-0.1,0-0.2,0-0.3-0.1
			c-0.8-0.2-1.7-0.4-2.5-0.5c-1.5-0.3-3.1-0.6-4.5-1c-0.8-0.2-1.5-0.3-2.2-0.5c-0.6-0.1-1.2-0.3-1.8-0.4c-0.9-0.2-1.7-0.4-2.5-0.6
			c-2.7-0.6-5.3-1.2-7.7-1.8c-0.6-0.1-1.1-0.3-1.6-0.4c-0.2,0-0.3-0.1-0.5-0.1c-0.5-0.1-1-0.2-1.5-0.4c-2.3-0.5-4.3-1.1-6.3-1.6
			c-0.5-0.1-1-0.3-1.5-0.4c-0.1,0-0.2,0-0.3-0.1c-0.5-0.1-0.9-0.3-1.4-0.4c-1.1-0.3-2.2-0.6-3.2-0.8c-0.3-0.1-0.7-0.2-1-0.3
			c-0.2-0.1-0.4-0.1-0.6-0.2c-0.3-0.1-0.5-0.2-0.8-0.2c-0.3-0.1-0.6-0.2-0.8-0.2c-0.3-0.1-0.6-0.2-0.9-0.3c-1-0.3-1.8-0.5-2.5-0.7
			c-0.1,0-0.2-0.1-0.3-0.1l353.1,110c0,0-79.1,68.7-193.5,92.5c-1.1,0.2-2.2,0.4-3.3,0.7c-91.1,18.1-177.9,2.6-240.1-16.4
			c-28.5-8.7-51.8-18.1-68-25.4c-6-2.7-11-5.1-15-7c0,0,0,0,0,0l-0.1-0.1c-5-2.4-8.2-4.1-9.4-4.8l17.6,10.1l17.5,10l61.6,35.3
			l177.6,101.8c0,0-77.6,48.9-177.6,48.9c-133.5,0-234.7-64.8-266.1-87.5l59,44.9l0.2,0.1l16.8,12.8l0.1,0.1l143.3,109.1
			c0,0-84.3,22.7-195,3.7c-0.8-0.1-1.5-0.3-2.2-0.4c-0.4-0.1-0.8-0.1-1.2-0.2c-0.5-0.1-1-0.2-1.4-0.3c-0.8-0.2-1.6-0.3-2.4-0.5
			c-0.8-0.2-1.5-0.3-2.3-0.5c-0.5-0.1-1.1-0.2-1.6-0.3c-0.7-0.1-1.4-0.3-2.1-0.5c-2.1-0.5-4.1-1-6.2-1.5c-1-0.2-2-0.5-3-0.8
			c-1.1-0.3-2.1-0.6-3.2-0.9c-0.5-0.1-1.1-0.3-1.6-0.5c-1.4-0.4-2.8-0.8-4.1-1.2c-1.2-0.4-2.4-0.7-3.7-1.1c-1-0.3-2.1-0.6-3.1-1
			c-0.4-0.1-0.7-0.2-1.1-0.3c-1.1-0.4-2.3-0.7-3.4-1.1c-0.1,0-0.3-0.1-0.4-0.1c-2.5-0.8-5.1-1.7-7.6-2.6c-1.1-0.4-2.1-0.8-3.2-1.2
			c-1.7-0.6-3.4-1.3-5-1.9c-1.1-0.4-2.3-0.9-3.4-1.3c-0.9-0.4-1.8-0.7-2.7-1.1c-4.5-1.8-8.9-3.7-13.3-5.7c-1.5-0.7-2.9-1.3-4.4-2
			c-2.9-1.3-5.7-2.7-8.6-4.1c-0.6-0.3-1.1-0.6-1.7-0.8c-5.3-2.6-10.6-5.3-15.8-8.1c-1.4-0.8-2.9-1.5-4.3-2.3c-0.3-0.2-0.7-0.4-1-0.5
			c-1.8-1-3.6-2-5.4-3c-1.1-0.6-2.2-1.2-3.3-1.9c-1.6-0.9-3.2-1.8-4.7-2.7c-0.1-0.1-0.2-0.1-0.3-0.2c-1-0.6-2-1.1-3-1.7
			c-3.2-1.9-6.3-3.8-9.4-5.7c-2-1.2-3.9-2.4-5.9-3.7c-1-0.6-2.1-1.3-3.1-1.9c-6.4-4.1-12.7-8.2-18.8-12.4c-2.6-1.7-5.1-3.5-7.6-5.2
			c-1.3-0.9-2.5-1.7-3.7-2.6c-7.8-5.5-15.4-11.1-22.6-16.5c-1.2-0.9-2.5-1.9-3.7-2.8c-3.7-2.8-7.3-5.6-10.8-8.4
			c-0.6-0.5-1.2-0.9-1.8-1.4c-3.1-2.5-6.2-4.9-9.1-7.3c-2-1.6-3.9-3.2-5.8-4.8s-3.8-3.1-5.6-4.6c-3.1-2.6-6.1-5.1-8.9-7.6
			c-0.3-0.3-0.7-0.6-1.1-1c-0.2-0.2-0.4-0.4-0.7-0.6c-0.4-0.3-0.7-0.6-1.1-1l223.8,206.3c0,0,0,0,0,0
			c-2.4,0.4-102.6,16.7-210.6-36.5c-89-43.8-200.4-161.4-227.3-190.6c-3.9-4.2-6-6.6-6-6.6l-61.7-71.2l-272-313.8
			c0,0-0.1-0.1-0.1-0.1c-0.1-0.2-0.2-0.2-0.2-0.2s356.1-40.3,513.3-167.6c142.3-115.3,92.5-300.1,92.5-300.1l690-864.4L2581,230.1
			c0,0,120.3,110.9,120.6,302.4c0.2,157.2-92.3,283.3-160.1,354.6c-32.7,34.4-59.6,56-67.7,62.3l98.1-73.3c0.6-0.5,1-0.7,1-0.8
			c0,0,0.1-0.1,0.1-0.1l220.4-164.7c0,0,32,109.7-3.1,290.2c-29.2,150.4-167.6,255.3-239.2,300.5l0,0c-14.1,8.9-25.5,15.4-33.1,19.6
			c-5.8,3.2-9.3,5-9.9,5.3l329.8-128c0,0,14.5,147.6-84,254.3C2673.5,1539.9,2536.8,1602.4,2489.9,1622.2
			C2489.9,1622.2,2489.9,1622.2,2489.9,1622.2z"/>
		<path class="st3" d="M2701.6,532.5c0.2,157.2-92.3,283.3-160.1,354.6c-37.3,35.3-68.9,63-70.1,64.1c0,0,0,0,0,0l-791.7,598
			c1.4-8.1,350.7-558,574.6-909.8L2581,230.1C2581,230.1,2701.3,341,2701.6,532.5z"/>
		<path class="st4" d="M2790.5,1000.7c-35,179.9-226.2,294.8-272.3,320.1l-831.1,324l-7.4-95.5c0,0,858.2-647.5,892.3-673.1
			c0.6-0.5,1-0.7,1-0.8c0,0,0.1-0.1,0.1-0.1l220.4-164.7C2793.6,710.5,2825.6,820.2,2790.5,1000.7z"/>
		<path class="st5" d="M2754.1,1452.4c-80.6,87.4-233.6,156.6-280.5,176.4c0,0,0,0,0,0l-787.5,118.9l1-103
			c0,0,838.7-328.2,831.1-324c-5.8,3.2-9.3,5-9.9,5.3l329.8-128C2838.1,1198.1,2852.6,1345.6,2754.1,1452.4z"/>
		<path class="st6" d="M2754.1,1587.1c0,0-27.2,148.1-117.9,219.9c-138.6,109.8-314.2,97.9-314.2,97.9l26.5,3.6l-681.8-70.8l19.3-90
			l996.8-150.1l0.8-0.1L2754.1,1587.1z"/>
		<path class="st7" d="M2618.8,1946.4c0,0-69.6,100.5-216.9,146.7c-51.4,16.1-105.8,20.1-154.9,18.4
			c-61.9-9.8-119.7-19.9-119.7-19.9l-440.2-129l-161.4-50.3c0,0,68.4-23.7,96.3-41.6c27.9-17.9,44.8-33,44.8-33l690.8,72
			L2618.8,1946.4z"/>
		<path class="st8" d="M2437.7,2195.2c0,0-79.1,68.7-193.5,92.5c-1.1,0.2-2.2,0.4-3.3,0.7c-91.1,18.1-177.9,2.6-240.1-16.4
			c-28.5-8.7-51.8-18.1-68-25.4l32.1,18.7c-7.9-3.4-15.1-7.1-21.5-10.5c-7.1-3.8-13.1-7.3-17.5-10c-4.8-3-7.7-5-8.1-5.2c0,0,0,0,0,0
			l-0.1-0.1l-532.4-292.7l140.4-34.4l419.8,126l0,0l207.2,62.2c-1.7-0.3-3.4-0.6-5.1-0.9c-1.1-0.2-2.1-0.4-3.2-0.6
			c-4.8-0.9-9.4-1.8-13.8-2.7c-0.5-0.1-1-0.2-1.4-0.3c-0.1,0-0.2,0-0.3-0.1c-0.8-0.2-1.7-0.4-2.5-0.5c-1.5-0.3-3.1-0.6-4.5-1
			c-0.8-0.2-1.5-0.3-2.2-0.5c-0.6-0.1-1.2-0.3-1.8-0.4c-0.9-0.2-1.7-0.4-2.5-0.6c-2.7-0.6-5.3-1.2-7.7-1.8c-0.6-0.1-1.1-0.3-1.6-0.4
			c-0.2,0-0.3-0.1-0.5-0.1c-0.5-0.1-1-0.2-1.5-0.4c-2.3-0.5-4.3-1.1-6.3-1.6c-0.5-0.1-1-0.3-1.5-0.4c-0.1,0-0.2,0-0.3-0.1
			c-0.5-0.1-0.9-0.3-1.4-0.4c-1.1-0.3-2.2-0.6-3.2-0.8c-0.3-0.1-0.7-0.2-1-0.3c-0.2-0.1-0.4-0.1-0.6-0.2c-0.3-0.1-0.5-0.2-0.8-0.2
			c-0.3-0.1-0.6-0.2-0.8-0.2c-0.3-0.1-0.6-0.2-0.9-0.3c-1-0.3-1.8-0.5-2.5-0.7c-0.1,0-0.2-0.1-0.3-0.1L2437.7,2195.2z"/>
		<path class="st3" d="M2005,2440.8c-133.5,0-234.7-64.8-266.1-87.5l59,44.9l0.2,0.1l16.8,12.8l-250.5-183.3L1226,1964.8l159.3-18.1
			l541.3,296.3l6.1,3.6l32.1,18.7l217.7,126.7C2182.6,2391.9,2105,2440.8,2005,2440.8z"/>
		<path class="st4" d="M1958.2,2520.3c0,0-84.3,22.7-195,3.7c-95.7-16.4-195.6-92.3-249-138.3c-0.2-0.2-0.4-0.4-0.7-0.6
			c-35.9-31.3-66.7-57.8-66.7-57.8L1096,1971.9l130-7.1l571.8,433.4l0.2,0.1l16.8,12.8l0.1,0.1L1958.2,2520.3z"/>
		<path class="st5" d="M1736.3,2590.5C1736.3,2590.5,1736.3,2590.5,1736.3,2590.5c-2.5,0.2-99.3,9.2-210.6-36.4
			c-89-43.8-200.4-161.4-227.3-190.6c-3.9-4.2-6-6.6-6-6.6l-61.7-71.2l-277.9-313.3c0,0,5.8-0.5,5.8-0.5c-0.1-0.2-0.2-0.2-0.2-0.2
			l137.5,0.3c0,0,0.4,0.4,1.2,1.2c8.3,8.4,57.7,58.8,116.4,117.9c0.1,0.1,0.2,0.2,0.2,0.2c56.9,57.3,122.6,122.8,168.1,166.3
			c47,45,159.5,151.3,133.4,129c-0.3-0.3-0.7-0.6-1.1-1c-0.2-0.2-0.4-0.4-0.7-0.6c-0.4-0.3-0.7-0.6-1.1-1L1736.3,2590.5z"/>
		<path class="st9" d="M958.5,1971.6c0,0,353.4-53,478.8-144.4c181.3-132.2,127.1-323.3,127.1-323.3l785.1-982.2l-669.7,1027.6
			c0,0,40,232.3-12.9,288.5c-61,64.7-257.6,110.3-356.5,119.9C1096.2,1978.6,958.5,1971.6,958.5,1971.6z"/>
		<path class="st9" d="M1525.7,2652.6c0,0-165.8,13.6-288.2-41.5c-122.4-55.1-188.1-93-286.8-196.4
			c-98.7-103.4-236.1-164.6-321.6-121.1c-7.7,3.9-14.4,8.6-20.2,13.9c-58.8,53.4-28.8,168-28.5,168.9c0,0-0.1,0-0.1,0
			c-2.1-0.9-30.4-14.3-58.1-49.8c0,0-0.1-0.1-0.1-0.1c-11.6-14.9-23.2-33.7-32.6-57.2c-4.3-10.6-8.1-22.1-11.3-34.6
			c-28.1-109-9-298.6,162.5-365.9c171.5-67.4,317.8,2.8,317.8,2.8l340,391.9c0,0,41.4,109.7,98.7,169.1
			C1454.5,2592,1525.7,2652.6,1525.7,2652.6z"/>
		<path class="st11" d="M594.5,2257.8c2.5,13.3,8.2,31.8,14.4,49.8c-58.8,53.4-28.8,168-28.5,168.9c0,0-0.1,0-0.1,0
			c-2.1-1.1-31.2-16.6-58.1-49.8c0,0-0.1-0.1-0.1-0.1c-12.3-15.2-24.1-34.2-32.6-57.2c-5.1-13.7-9-28.9-11.1-45.5
			C464.7,2216,613.2,2170,613.2,2170S587.8,2222.1,594.5,2257.8z"/>
		<path class="st5" d="M1418.5,2651.9c0,0,70.6,105,195,166.5c124.4,61.5,185.9,56.6,235.7,46.4c49.8-10.2,58.5-31.1,58.5-31.1
			l-382-181.1L1418.5,2651.9z"/>
		<path class="st6" d="M1291.7,2630.6c0,0,62.8,101.8,123.5,168.4c52.6,57.7,107.1,90.2,152.7,100.4c61.5,13.7,119.2,5.8,119.2,5.8
			s-123.6-115.2-123.6-115.2c0,0-145-138.2-145-138.2L1291.7,2630.6z"/>
		<path class="st7" d="M1203.5,2595.5l99.5,35.1l95.6,149.3l111,155.1c0,0-72.5,16.5-139.5-43.3
			C1264.6,2797.8,1203.5,2595.5,1203.5,2595.5z"/>
		<path class="st3" d="M953.3,1970.7l38.1-42.5l580-378.9c0,0,6.1,178.6-104.6,258.7C1266.4,1952.9,953.3,1970.7,953.3,1970.7z"/>
		<path d="M958.1,1981.5c-2.1,0-4.3-0.7-6.1-2c-4.1-3.1-5.3-8.8-2.7-13.2c7.3-12.7,32.1-59,45-121.4c16.5-79.8,7.2-152.8-27.6-216.8
			c-33.5-61.5-98-97.1-146.2-116.2c-53-20.9-98.6-27.1-99.1-27.1l-5.4-0.7l-2.2-5L108.6,101.5l17.8-7.8l131.4,299l549.6,995
			c20.4,6.8,121.8,41.6,209.7,85c50.3,24.8,91.1,46.1,119.7,75.2c33.4,33.9,45.8,74,39.2,126.1c-5,39.5-39.2,99.7-101.5,178.8
			c-47.3,60-95.3,111.3-108.9,125.6C963.5,1980.4,960.8,1981.5,958.1,1981.5z M729.5,1466.2c14,2.3,52.9,9.7,97.8,27.3
			c32.5,12.8,61.4,28.4,85.9,46.4c30.9,22.7,54.7,49.2,70.8,78.8c20.2,37.2,32.5,77.9,36.4,120.8c3.2,35,0.9,71.8-6.8,109.2
			c-5.6,27.2-13.4,51.5-21.1,71.5c19.5-22,43.3-49.7,66.9-79.6c59.3-75.3,93-133.8,97.5-169.2c5.8-45.7-4.9-80.6-33.8-109.9
			c-26.5-26.9-65.8-47.4-114.4-71.4c-96.4-47.5-209.6-84.8-210.8-85.1l-3.6-1.2L344.3,589.7L729.5,1466.2z"/>
		<path d="M828.6,1397.1c-0.6-4.1-58.4-416.7-109.6-703.6c-25.5-143.2-65-271.9-114.3-372.2c-49.7-101.1-108.1-170.9-169-201.8
			c-64.6-32.8-145.7-32.6-202.4-26.6c-62.1,6.5-116.8,25.6-117.2,25.7l-10-21.9c2-0.6,58.3-19.7,122.3-26.4
			c37.6-4,75.8-1.1,108.3,2.2c41,4.1,77.3,14.1,107.9,29.6c33,16.7,65.1,43.7,95.4,80.1c29.3,35.1,56.9,79,82.3,130.5
			c50.1,101.9,90.2,232.4,116,377.4c51.2,287.4,109.1,700.2,109.7,704.4L828.6,1397.1z"/>
		<path d="M994.2,1467.8l-19.5-0.8c0.1-2.2,9.5-225.3,9.9-469.8c0.5-322.7-14.7-535.6-44.1-615.9
			c-36.2-98.9-108.1-171.2-213.8-214.8c-58.7-24.2-112.1-32.4-136.2-35c18.8,67.1,100.9,360.5,102.9,367.4l-18.7,5.6
			c-2.4-7.9-102.5-366-106.8-381.2l-3.6-12.9l13.4,0.6c3,0.1,73.3,3.4,155.8,37.4c48.6,20,91.2,46.5,126.6,78.8
			c44.4,40.5,77.6,90.1,98.6,147.6c30.6,83.6,45.8,293.1,45.3,622.7C1003.7,1242.1,994.3,1465.6,994.2,1467.8z"/>
		<path d="M1098.3,1525.6l-18.5-6.1c0.6-1.8,58.6-177.8,105.9-388.5c62.4-277.8,77.9-489.4,44.9-611.8
			c-23.9-88.6-94.3-154.4-149.1-194.1c-41.9-30.3-81.4-50.4-101.7-59.8c3.8,87.1,21.3,492.8,21.6,503.7l-19.5,0.6
			c-0.3-11.8-22.1-514-22.3-519.1l-0.7-15.1l14,5.6c2.3,0.9,57.5,23.3,119.5,68c36.5,26.3,67.6,54.9,92.6,85
			c31.4,37.9,53.1,78.3,64.3,120c19,70.3,22.7,167.4,11.2,288.6c-9.2,96.4-28,208.4-55.9,332.8
			C1157.2,1347,1098.9,1523.8,1098.3,1525.6z"/>
		<path d="M1171.2,1612.6l-17.6-8.4c3.1-6.4,305.6-637,319.1-765.6c15.2-145.3-34.2-241.1-78.4-295.9c-33.9-42.1-69.7-67-87.8-78
			c-11.8,86.1-70.7,516.4-72.3,525.4l-19.2-3.4c0,0,0,0,0,0l0,0c1.5-8.7,49.2-356.2,74.2-538.8l1.8-13.3l12.1,5.8
			c2.3,1.1,56,27.4,106.5,90c29.6,36.7,51.9,78.4,66.2,123.9c17.9,56.7,23.4,119.3,16.4,186.3c-5.8,55.7-61.7,202.6-166,436.8
			C1248.7,1451.2,1172,1611,1171.2,1612.6z"/>
		<path d="M1048.6,1884.6l-14.4-13.1c1.4-1.6,145.9-160.4,293.7-343.4c194.8-241.3,307-414.6,324.4-501.2
			c14.6-72.8,2.1-142.2-37.4-206.1c-20.2-32.8-42.7-55.6-55-67c-31.1,69.4-187.3,417.7-193.9,432.9l-17.9-7.7
			c7.3-16.9,191.5-427.6,199.3-445.1l5-11.2l9.8,7.5c1.5,1.2,37.3,28.9,68.8,79.7c18.5,29.9,31.7,61.7,39.2,94.4
			c9.3,41,9.7,83.5,1.1,126.4c-10.1,50.4-49.4,126.9-116.7,227.2c-53.4,79.6-124.7,174.7-211.8,282.5
			C1194.8,1723.9,1050,1883.1,1048.6,1884.6z"/>
		<path class="st12" d="M1483,1360.5l-15.6-11.6c3.8-5.1,241.8-337.1,244.2-340.5l9.5-13.3l7.2,14.7c1.3,2.7,32.5,67.9,30.9,170.6
			c-1.2,75.5-18.2,112.8-18.9,114.4l-17.7-8.2c0.1-0.3,15.9-35.6,17.1-106.5c1.1-69.2-13.7-121.2-22.6-145.9
			C1670.4,1099.2,1486.2,1356.2,1483,1360.5z"/>
		<path d="M968.9,1980.9c-7,0-10.9,0-11.2,0l-0.9-19.4c0.9-0.1,94.5-9.9,204.2-35.8c144.1-34.1,250.5-80.4,307.6-134
			c57.4-53.9,89.4-118.2,95-191.3c4.2-54.4-8.4-92.9-8.5-93.3l-1.7-5l3.3-4.1L2580.5,215.1l7.7,8.4c1.3,1.5,33.2,36.4,64.5,96.3
			c18.4,35.1,32.7,71.6,42.6,108.3c12.4,46,17.8,92.6,16.1,138.5c-2.2,57.4-21.3,118.2-56.9,180.7c-28.3,49.6-66.9,100.4-114.9,151
			c-81.5,85.9-163,142.5-163.9,143.1l-11.1-16c0.8-0.6,80.9-56.2,161-140.7c73.3-77.4,161.7-195.4,166.3-318.7
			c3.7-99.4-28.5-183.5-56.1-236.6c-21.3-41-43.4-70.3-54.5-84l-239.7,300.2l-651.8,1017.8c3.5,27.7,23.1,197.8-13.5,263.2
			c-18.5,33-59.3,60.1-124.8,82.8c-59.6,20.7-133.8,35.5-198.4,47.4C1229.6,1979.4,1019.6,1980.9,968.9,1980.9z M1575.1,1506
			c3.5,12.9,11.6,48.8,7.9,95.8c-2.7,34.2-11,67.2-24.7,98.3c-17.2,38.7-42.9,74.3-76.4,105.7c-33.4,31.4-81.9,60.1-144.1,85.4
			c-49.3,20-107.4,38-172.6,53.4c-23.7,5.6-46.6,10.4-68,14.6c81.3-2.7,181.5-8.6,252.4-21.6c63.9-11.7,137.2-26.4,195.6-46.6
			c60.7-21,98.1-45.2,114.1-73.9c35.9-64,11-252.7,10.7-254.6l-0.5-3.5l555-866.7L1575.1,1506z"/>
		<path d="M1685.6,1569l-11.8-15.5l1125.6-859.6l3.6,14.3c0.5,2.1,12.8,51.1,15,123.5c1.3,42.5-1.3,84.1-7.5,123.8
			c-7.9,49.7-21.6,96.5-40.9,139c-32.9,72.4-95.2,131.4-141.7,168.1c-50.2,39.6-92,61.9-93.8,62.9l-9.1-17.2
			c0.4-0.2,42.3-22.6,91.2-61.2c44.7-35.3,104.5-91.9,135.8-160.6c42-92.5,48.6-189,46.7-253.6c-1.4-47.7-7.4-85.5-11.2-105.1
			L1685.6,1569z"/>
		<path d="M1690.6,1653.9l-7-18.2l1163.3-451.5l1,13.1c0.1,1.7,2.9,41.8-8.1,96.1c-10.1,50.2-34.4,122.4-92.6,180.8
			c-57.5,57.6-127.9,99.1-176.9,123.7c-53,26.7-92,39.6-93.6,40.1l-6.1-18.5c0.4-0.1,39.5-13.1,91.3-39.2
			c47.6-24,116-64.2,171.5-119.9c54.7-54.8,77.6-122.8,87.2-170.3c6.9-33.8,8.1-62.3,8.2-78.1L1690.6,1653.9z"/>
		<path d="M2308.2,1918.3c-8,0-12.7-0.2-13.3-0.2l0.8-19.5c0.4,0,44.7,1.8,103.5-6.2c53.9-7.3,131.4-24.4,194.5-64.8
			c73.4-46.9,110.5-109.8,128.6-154.3c13.1-32.2,18.6-59.7,20.7-74.7l-1055.5,159.5l-2.9-19.3l1079.9-163.2l-0.6,11.9
			c-0.1,1.6-2.4,40.9-23.2,92.3c-12.2,30.1-28.3,58.2-47.8,83.4c-24.4,31.5-54.2,58.7-88.7,80.7c-66.3,42.3-146.8,60.2-202.8,67.7
			C2359.8,1917.3,2325.9,1918.3,2308.2,1918.3z"/>
		<path d="M2288.1,2117c-40.6,0-86.3-4.2-136.8-12.5c-79.2-13.1-141.6-32.3-142.2-32.5l5.8-18.6c0.6,0.2,62,19,139.9,31.9
			c102.4,16.9,186.8,16.1,244.2-2.5c86.5-28,139.4-65.1,168.4-91.3c17.2-15.5,28.3-29.1,34.9-38.3l-945-107.8l2.2-19.4l974.2,111.2
			l-6.1,12.4c-0.5,1-12.4,24.8-46.1,55.4c-30.6,27.8-86,67-176.5,96.3C2372.6,2111.7,2333.5,2117,2288.1,2117z"/>
		<path d="M2176.6,2303.4c-110.7,0-233.1-34.5-364.1-102.8c-94.6-49.3-436.2-247.9-439.7-249.9l9.8-16.8
			c3.4,2,344.7,200.4,438.9,249.4c133.9,69.7,258.1,103.5,369.3,100.4c70.8-2,132.3-27.8,171.4-49.1c24.4-13.3,43.3-26.5,55.1-35.5
			l-900.4-280.4l5.8-18.6l934.2,291l-12.8,11.5c-1.1,1-27.7,24.6-72.2,48.9c-41.1,22.5-105.8,49.7-180.7,51.8
			C2186.4,2303.3,2181.5,2303.4,2176.6,2303.4z"/>
		<path d="M1991.5,2450.5c-41.6,0-82.5-6.7-121.6-20c-71.3-24.3-202.5-109.5-389.9-253.2c-139.1-106.7-259.1-207.7-260.3-208.7
			l12.6-14.9c4.8,4,478.1,401.8,644,458.3c84.2,28.7,161.5,19.5,211.5,6.7c33.2-8.5,59.1-19.6,74.4-27
			c-117.9-64.9-317.8-175-323.3-177.8l2.5-4.9l6.1-12.6c4.3,2.1,305.5,168,339.8,186.9l14.7,8.1l-14.3,8.7
			c-1.5,0.9-37.3,22.6-94.4,37.2c-33.5,8.6-67.5,13-100.9,13.1C1992.1,2450.5,1991.8,2450.5,1991.5,2450.5z"/>
		<path d="M1845.1,2537.8c-59.5,0-107.9-7.1-144.1-21.1c-47.1-18.2-108.9-58.2-183.6-118.8c-59.3-48.1-127.1-109.4-201.3-182.1
			c-126.3-123.7-229.2-239.3-230.2-240.5l14.6-12.9c1,1.1,103.5,116.4,229.4,239.6c165.9,162.5,296.7,265,378.2,296.6
			c70,27.1,177.5,20,224.9,15l-268.4-201l11.7-15.6l306.4,229.5l-23,3.5c-1.6,0.2-40.9,6.1-92.4,7.6
			C1859.7,2537.7,1852.3,2537.8,1845.1,2537.8z"/>
		<path d="M1699,2602.2c-10.2,0-22.1-0.4-35.3-1.4c-39.8-3.2-99.2-13.6-155.9-45.1c-96.2-53.4-174.8-140.6-250.7-225
			c-19-21.1-36.9-41-55.1-60.4c-105.3-112.4-250.3-291.2-251.8-293l15.1-12.3c1.4,1.8,146,180.1,250.9,292
			c18.4,19.6,37.2,40.5,55.4,60.7c74.9,83.2,152.3,169.2,245.7,221c53.5,29.7,109.7,39.6,147.5,42.7c19.5,1.6,36.3,1.6,48.5,1.1
			l-256.9-238.2l13.2-14.3l288.5,267.5l-20.4,2.8C1736.8,2600.2,1722.3,2602.2,1699,2602.2z"/>
		<path d="M1479,2665.3c-12.4,0-27.2-0.5-44.1-1.8c-53.9-4.3-141.3-18.5-252.2-62c-87.1-34.2-149.3-94-209.5-151.8
			c-74.8-71.9-145.5-139.9-259.1-158.3c-41.8-6.8-73.7,0.8-95,22.6c-49,50.1-29.4,159.7-29.2,160.8l3.7,19.9l-17.9-9.5
			c-0.9-0.5-23.2-12.6-48.6-41.1c-23.1-26-53.5-71.5-66.7-140.2c-14.5-75.4-3.9-148.3,30.4-211c16-29.2,36.9-55.6,62-78.3
			c24.7-22.4,52.8-40.7,83.7-54.6c38-17,78.4-27.5,120.1-31.1c33.3-2.9,67.5-1.5,101.7,4.3c58.2,9.8,95.8,28.5,97.4,29.3l-2.5,21.2
			c-0.4-0.2-43.2-22.1-98.7-31.4c-50.9-8.5-128.6-10.9-209.9,25.5c-126.9,56.9-191.7,183.5-165,322.4
			c16.8,87.7,62.9,135.5,88.2,155.8c-3.5-37.5-4.5-112.7,37.3-155.6c25.9-26.6,63.6-36.1,112-28.2c53.8,8.7,103.5,29.1,151.8,62.2
			c42.8,29.3,80.9,65.9,117.6,101.3c58.8,56.5,119.6,115,203.1,147.7c108.1,42.4,193.2,56.4,245.6,60.6c28.4,2.3,50.4,2.1,65.5,1.2
			c-30.2-24.7-89.1-75.4-123.5-122.2c-49.9-67.9-80.9-147.9-82.1-151.3l18.2-7c0.3,0.8,31.3,81,79.6,146.7
			c45,61.2,137.7,132.6,138.6,133.3l17.4,13.4l-21.6,3.9C1526.5,2662.3,1509.8,2665.3,1479,2665.3z"/>
		<path d="M472.2,2348.3c-0.2-0.8-5.5-19.5-3.3-45.6c2-24.1,11-59.6,42.5-91.6c30.1-30.6,81.5-45.5,102.2-50.4
			c5.3-1.3,10.6,0.8,13.6,5.3c3,4.5,2.9,10.2-0.3,14.6c-6.4,8.8-17.9,29.7-22.2,70.2c-3.1,29.3,13.9,57.4,14.1,57.7l-16.6,10.3
			c-0.8-1.4-20.8-33.9-16.9-70c3.2-30.4,10.4-51.3,17.1-64.9c-22.7,6.8-56.2,19.7-77,40.9c-52.3,53.3-34.5,117.5-34.3,118.2
			L472.2,2348.3z"/>
		<path d="M1790.5,2883.3c-10.9,0-22.5-0.8-34.7-2.8c-42.9-6.8-89.8-23.5-139.2-49.5c-48.8-25.7-86.1-53.2-104.1-67.4
			c-49.4-38.9-104.9-102-107.2-104.7l14.6-12.8c0.6,0.6,56.7,64.5,104.7,102.2c58.2,45.9,150.3,99.6,234.3,112.9
			c36.8,5.8,71.9,1.8,104.3-12c10.8-4.6,19.5-9.6,25.8-13.8l-367.4-174.1l8.3-17.6l395,187.2l-10.6,9.8c-0.6,0.6-15.6,14.3-42.7,26
			C1852.8,2875,1825,2883.3,1790.5,2883.3z"/>
		<path d="M1642.8,2918.4c-4.9,0-10-0.1-15.4-0.4c-32.9-1.5-81.4-9.1-125.9-36.1c-66.1-40.1-123-106.9-159-155.8
			c-38.9-52.8-62-95.5-63-97.3l17.2-9.2c0.2,0.4,23.5,43.5,61.7,95.3c35,47.4,90,112,153.3,150.5c56.7,34.4,121.4,35.1,153.5,32.7
			l-114.7-106.9l13.3-14.3l144.2,134.3l-18.9,3.6C1688.1,2915,1670,2918.4,1642.8,2918.4z"/>
		<path d="M1489.7,2946.6c-25.8,0-70.9-7.1-118.3-47.4c-38.1-32.4-79.6-92.1-123.1-177.6c-32.2-63.2-53.7-117.8-53.9-118.3l18.1-7.1
			c0.8,2.1,84.8,214.5,171.5,288.2c44.6,37.9,86.5,43.1,108.1,42.7l-87.6-126.3l16-11.1l105.1,151.6l-13.9,3.3
			C1510.9,2944.8,1502.8,2946.6,1489.7,2946.6z"/>
		<rect x="916.4" y="1735.6" transform="matrix(0.8276 -0.5614 0.5614 0.8276 -759.8774 1016.8845)" width="717.7" height="19.5"/>
	</g>
</g>
<g id="Слой_2__x28_копия_x29_" class="st0">
	<g class="st1">
		<path class="st2" d="M1739.6,1282.5c-0.1,0.4-0.2,0.7-0.2,0.7l-0.2,0.3L1573,1499.5c0,0,0,0,0,0.1c0.4,1.5,6,21.4,8.6,53.3
			c2,25.2,2.2,57.9-3.4,95.1c-17.9,118.6-99.8,178.6-230.6,232.8c-16.1,6.7-32.9,13-50,18.8c-4.4,1.5-8.8,3-13.2,4.5
			c-146.6,48.2-313.3,68.4-332,70.5c-0.7,0.1-1.2,0.1-1.5,0.2c0,0-0.1,0-0.1,0c-0.1,0-0.1,0-0.1,0l0.4-0.4c0.1-0.1,0.3-0.3,0.5-0.5
			l0.4-0.5c0.3-0.3,0.6-0.6,0.9-1c0.1-0.2,0.3-0.3,0.4-0.5c4.2-5,13.2-16.3,22.9-33.5c29.1-51.5,64.7-155.2-1.6-295.7
			c-64.2-136-251.8-167.8-251.8-167.8L327.2,552.3L203.1,262.8L130.8,94.1c0-0.1,0-0.1-0.1-0.2c0-0.1-0.1-0.1-0.1-0.1
			S187.4,73.2,265,73.4c81,0.2,147.2,5.6,229.6,74.8c0.6,0.5,1.3,1.1,1.9,1.6c3,2.5,5.9,5.1,8.9,7.8c0.8,0.8,1.7,1.5,2.5,2.3
			c0.9,0.9,1.9,1.8,2.8,2.6c0.9,0.9,1.8,1.8,2.8,2.7c0.9,0.9,1.8,1.8,2.7,2.7c0.9,0.9,1.8,1.8,2.7,2.7c2.7,2.8,5.3,5.6,8,8.4
			c0.9,1,1.8,1.9,2.6,2.9c0.9,1,1.7,1.9,2.6,2.9c0.9,1,1.7,2,2.6,2.9c0.9,1,1.7,2,2.5,3c0.8,1,1.7,2,2.5,3c0.8,1,1.7,2,2.5,3
			c1.4,1.7,2.8,3.5,4.2,5.2c1.1,1.3,2.1,2.6,3.1,4c1.6,2.1,3.2,4.1,4.8,6.2c0.8,1,1.6,2.1,2.3,3.1c0.8,1.1,1.5,2.1,2.3,3.2
			c0.2,0.3,0.4,0.5,0.6,0.8c1.3,1.8,2.7,3.7,4,5.5c0,0,0,0,0,0c0.7,1.1,1.5,2.1,2.2,3.2c0,0,0,0.1,0.1,0.1c0.7,1,1.4,2.1,2.2,3.1
			c0.7,1.1,1.5,2.1,2.2,3.2c0.1,0.1,0.2,0.2,0.2,0.4c1,1.5,2,3,3,4.5c1.8,2.7,3.6,5.4,5.3,8.1c0.7,1,1.3,2.1,2,3.1
			c0,0,0,0.1,0.1,0.1c0.7,1.1,1.4,2.2,2,3.2c2.6,4.1,5.1,8.2,7.6,12.4c0.4,0.7,0.9,1.5,1.3,2.2c4.2,7.1,8.3,14.2,12.1,21.2
			c0.5,0.9,1,1.8,1.5,2.8c0.5,0.9,0.9,1.7,1.4,2.6c0.1,0.2,0.2,0.4,0.3,0.6c1.1,2,2.1,4,3.2,5.9c0.6,1.1,1.2,2.3,1.8,3.4
			c0.4,0.8,0.9,1.6,1.3,2.5c0.8,1.6,1.7,3.2,2.5,4.8c0.7,1.4,1.4,2.8,2.1,4.2c2.6,5.3,5.2,10.4,7.6,15.4c0.4,0.9,0.9,1.9,1.3,2.8
			c5.9,12.4,11,23.8,15.3,33.8c0.7,1.6,1.3,3.1,2,4.6c1.5,3.5,2.8,6.8,4.1,9.9c0.3,0.8,0.6,1.6,1,2.4c1.5,3.9,2.9,7.3,4.1,10.3
			c2.9,7.4,4.5,12,4.8,13l-81.5-291.2c0,0,148.1,15.1,261.7,103.4c83,64.6,120.3,178.8,134.3,235.7c0.3,1.2,0.6,2.3,0.8,3.5
			c4.6,18.9,6.4,30.7,6.4,30.7L969.3,250c0,0,161.2,57.2,250.7,199.1c29.7,47.1,37.9,141.2,39.6,209.2c0.5,18.7,0.5,35.4,0.3,48.6
			c-0.2,19-0.8,30.8-0.8,30.8l39.6-288.7c0,0,128.9,82.3,172.7,210.3c32.5,94.8,9.7,211.9-4.3,266.3c-4.5,17.4-8.1,28.4-8.6,30.2
			c0,0,0,0.1,0,0.1l97.8-218.2c0,0,83,64,106.2,180.5c13.8,69.5-8.4,144.7-30.5,197.4c-3,7.1-6,13.9-8.9,20.1
			c-10.1,21.6-19,37.3-23.2,44.4c0,0,0,0,0,0c-1.3,2.2-2.1,3.5-2.4,4l117.5-163.5l2.3-3.2l0.8-1.1c0.9-1.2,1.6-2.3,2.3-3.1
			c0.3-0.4,0.5-0.7,0.7-1c0.3-0.4,0.5-0.7,0.7-0.9c0.1-0.1,0.2-0.2,0.2-0.3c0.2-0.2,0.2-0.3,0.2-0.3s23.9,36.6,30.9,102.3
			C1762.9,1206,1742,1275.1,1739.6,1282.5z"/>
		<path class="st3" d="M826.1,1395.7l-30.1-8.6L237.1,360.9L130.8,94.1c0-0.1,0-0.1-0.1-0.2c0-0.1-0.1-0.1-0.1-0.1
			S187.4,73.2,265,73.4c81,0.2,147.2,5.6,229.6,74.8c0.6,0.5,1.3,1.1,1.9,1.6c3,2.5,5.9,5.1,8.9,7.8c0.8,0.8,1.7,1.5,2.5,2.3
			c0.9,0.9,1.9,1.8,2.8,2.6c0.9,0.9,1.8,1.8,2.8,2.7c0.9,0.9,1.8,1.8,2.7,2.7c0.9,0.9,1.8,1.8,2.7,2.7c2.7,2.8,5.4,5.6,8,8.4
			c0.9,1,1.8,1.9,2.6,2.9c0.9,1,1.7,1.9,2.6,2.9c0.9,1,1.7,2,2.6,2.9c0.9,1,1.7,2,2.5,3c0.8,1,1.7,2,2.5,3c0.8,1,1.7,2,2.5,3
			c1.4,1.7,2.8,3.5,4.2,5.2c1.1,1.3,2.1,2.6,3.1,4c1.6,2.1,3.2,4.1,4.8,6.2c0.8,1,1.6,2.1,2.3,3.1c0.8,1.1,1.5,2.1,2.3,3.2
			c0.2,0.3,0.4,0.5,0.6,0.8c1.3,1.8,2.7,3.7,4,5.5c0,0,0,0,0,0c0.7,1.1,1.5,2.1,2.2,3.2c0,0,0,0.1,0.1,0.1c0.7,1,1.4,2.1,2.2,3.1
			c0.7,1.1,1.5,2.1,2.2,3.2c0.1,0.1,0.2,0.2,0.2,0.4c1,1.5,2,3,3,4.5c1.8,2.7,3.6,5.4,5.3,8.1c0.7,1,1.3,2.1,2,3.1
			c0,0,0,0.1,0.1,0.1c0.7,1.1,1.4,2.2,2,3.2c2.6,4.1,5.1,8.2,7.6,12.4c0.4,0.7,0.9,1.5,1.3,2.2c4.2,7.1,8.3,14.2,12.1,21.2
			c0.5,0.9,1,1.8,1.5,2.8c0.5,0.9,0.9,1.7,1.4,2.6c0.1,0.2,0.2,0.4,0.3,0.6c1.1,2,2.1,4,3.2,5.9c0.6,1.1,1.2,2.3,1.8,3.4
			c0.4,0.8,0.9,1.6,1.3,2.5c0.8,1.6,1.7,3.2,2.5,4.8c0.7,1.4,1.4,2.8,2.1,4.2c2.6,5.3,5.2,10.4,7.6,15.4c0.4,0.9,0.9,1.9,1.3,2.8
			c5.9,12.4,11,23.8,15.3,33.8c0.7,1.6,1.3,3.1,2,4.6c1.5,3.5,2.8,6.8,4.1,9.9c0.3,0.8,0.6,1.6,1,2.4c1.5,3.9,2.9,7.3,4.1,10.3
			c32.9,111,66.1,240.2,92.4,366.7C793.3,992.2,826.1,1395.7,826.1,1395.7z"/>
		<path class="st4" d="M984.4,1467.4l-158.3-71.7c0,0-58.4-540-114.3-782.2c-22.2-96.4-135.3-496.1-135.3-496.1
			s148.1,15.1,261.7,103.4c83,64.6,120.3,178.8,134.3,235.7c5.8,26.4,7.1,31.6,7.1,31.6s4.8,383.1,15.2,540.5
			C1005.2,1186.1,984.4,1467.4,984.4,1467.4z"/>
		<path class="st5" d="M1261.8,665.3c-3.3,154.6-25.9,274-67.3,470.5c-55.3,263.1-101.4,386.7-101.4,386.7l-108.8-55.1
			c0,0,11.5-290.6,2.1-648.3c-3.3-125.9-6.8-328.3-6.8-328.3L969.3,250c0,0,161.2,57.2,250.7,199.1
			C1249.7,496.2,1260.1,597.3,1261.8,665.3z"/>
		<path class="st6" d="M1458.5,955.9c0,0,0,0.1,0,0.1c-45.4,109.8-182.7,402.3-214.6,477.9c-31.8,75.6-81.5,174.5-81.5,174.5
			s-10-25.8-38.8-56.8c-16.9-18.3-42.4-35.1-42.4-35.1s117.5-338.6,157.6-630.2c8.7-63.5,21.3-154.6,21.3-154.6l38.7-282.5
			c0,0,128.9,82.3,172.7,210.3C1514.4,784.5,1460.9,948.6,1458.5,955.9z"/>
		<path class="st7" d="M1623.1,1135.8c0,0-24,55.6-24,55.6c-44.7,79.8-468,584.3-471.5,588.7c0.7-1.7,33.1-77.9,40.4-107.4
			c7.4-29.8-5.5-64.3-5.5-64.3c0.7-20,296.1-652.4,296.1-652.4l97.8-218.2c0,0,83,64,106.2,180.5
			C1678.2,997.2,1647.5,1083.5,1623.1,1135.8z"/>
		<path class="st8" d="M1739.6,1282.5l-0.4,0.9l-8.7,19.1l-157.4,197c0,0,0,0,0,0.1c0.4,1.6,5.1,22.4,8.6,53.3
			c2,25.2,2.2,57.9-3.4,95.1c-17.9,118.6-99.8,178.6-230.6,232.8c-16.1,6.7-32.9,13-50,18.8c-4.5,1.4-9,2.9-13.2,4.5
			c-161.1,57.7-326.4,70.2-333.5,70.7c0,0-0.1,0-0.1,0c-0.1,0-0.1,0-0.1,0l0.4-0.4l0.5-0.5l0.4-0.5l175.6-193.4
			c0,0,235.8-277.5,331.3-405.9c23.7-31.9,84.1-115.2,141.1-194c0,0,0,0,0,0c50.1-69.3,97.6-135.1,115.1-159.5
			c0.8-1.1,1.6-2.2,2.3-3.2l0.8-1.1c0.9-1.2,1.6-2.3,2.3-3.1c0.3-0.4,0.5-0.7,0.7-1c0.3-0.4,0.5-0.7,0.7-0.9
			c0.1-0.1,0.2-0.2,0.2-0.3c0.2-0.2,0.2-0.3,0.2-0.3s23.9,36.6,30.9,102.3C1762.9,1206,1742,1275.1,1739.6,1282.5z"/>
		<path class="st8" d="M952.4,1974.6"/>
		<path class="st9" d="M1127.6,1778.7C1127.6,1778.8,1127.6,1778.8,1127.6,1778.7c0,0-0.3,0.2-0.6,0.7
			c-9.7,12.7-126,136.8-173.7,191.3c4.2-5,13.2-16.3,22.9-33.5c29.1-51.5,66.2-156.1-0.1-296.5c-64.2-136-253.3-166.9-253.3-166.9
			L237.1,360.9l568.1,1034.8c0,0,230.8,66,318.5,154.6C1225.2,1652.9,1129.7,1776.1,1127.6,1778.7z"/>
		<path class="st8" d="M952.4,1974.6"/>
		<path class="st10" d="M2489.9,1622.2c-9.9,4.2-15.8,6.5-16.3,6.6l209.3-31.2l0.8-0.1l70.4-10.5c0,0-27.2,148.1-117.9,219.9
			c-138.6,109.8-314.2,97.9-314.2,97.9l26.5,3.6c0,0,0,0,0,0l9.1,1.2l37.9,5.1l223.3,30.4c0,0-0.3,0.4-0.8,1.1
			c-7.9,10.8-77.7,102.2-216.1,145.7c-51.4,16.1-105.8,20.1-154.9,18.4c-3.3-0.1-6.6-0.3-9.9-0.4h0c-31.3-1.5-60.2-5.3-84.3-9.5h0
			c-1.7-0.3-3.4-0.6-5.1-0.9c-1.1-0.2-2.1-0.4-3.2-0.6c-4.8-0.9-9.4-1.8-13.8-2.7c-0.5-0.1-1-0.2-1.4-0.3c-0.1,0-0.2,0-0.3-0.1
			c-0.8-0.2-1.7-0.4-2.5-0.5c-1.5-0.3-3.1-0.6-4.5-1c-0.8-0.2-1.5-0.3-2.2-0.5c-0.6-0.1-1.2-0.3-1.8-0.4c-0.9-0.2-1.7-0.4-2.5-0.6
			c-2.7-0.6-5.3-1.2-7.7-1.8c-0.6-0.1-1.1-0.3-1.6-0.4c-0.2,0-0.3-0.1-0.5-0.1c-0.5-0.1-1-0.2-1.5-0.4c-2.3-0.5-4.3-1.1-6.3-1.6
			c-0.5-0.1-1-0.3-1.5-0.4c-0.1,0-0.2,0-0.3-0.1c-0.5-0.1-0.9-0.3-1.4-0.4c-1.1-0.3-2.2-0.6-3.2-0.8c-0.3-0.1-0.7-0.2-1-0.3
			c-0.2-0.1-0.4-0.1-0.6-0.2c-0.3-0.1-0.5-0.2-0.8-0.2c-0.3-0.1-0.6-0.2-0.8-0.2c-0.3-0.1-0.6-0.2-0.9-0.3c-1-0.3-1.8-0.5-2.5-0.7
			c-0.1,0-0.2-0.1-0.3-0.1l353.1,110c0,0-79.1,68.7-193.5,92.5c-1.1,0.2-2.2,0.4-3.3,0.7c-91.1,18.1-177.9,2.6-240.1-16.4
			c-28.5-8.7-51.8-18.1-68-25.4c-6-2.7-11-5.1-15-7c0,0,0,0,0,0l-0.1-0.1c-5-2.4-8.2-4.1-9.4-4.8l17.6,10.1l17.5,10l61.6,35.3
			l177.6,101.8c0,0-77.6,48.9-177.6,48.9c-133.5,0-234.7-64.8-266.1-87.5l59,44.9l0.2,0.1l16.8,12.8l0.1,0.1l143.3,109.1
			c0,0-84.3,22.7-195,3.7c-0.8-0.1-1.5-0.3-2.2-0.4c-0.4-0.1-0.8-0.1-1.2-0.2c-0.5-0.1-1-0.2-1.4-0.3c-0.8-0.2-1.6-0.3-2.4-0.5
			c-0.8-0.2-1.5-0.3-2.3-0.5c-0.5-0.1-1.1-0.2-1.6-0.3c-0.7-0.1-1.4-0.3-2.1-0.5c-2.1-0.5-4.1-1-6.2-1.5c-1-0.2-2-0.5-3-0.8
			c-1.1-0.3-2.1-0.6-3.2-0.9c-0.5-0.1-1.1-0.3-1.6-0.5c-1.4-0.4-2.8-0.8-4.1-1.2c-1.2-0.4-2.4-0.7-3.7-1.1c-1-0.3-2.1-0.6-3.1-1
			c-0.4-0.1-0.7-0.2-1.1-0.3c-1.1-0.4-2.3-0.7-3.4-1.1c-0.1,0-0.3-0.1-0.4-0.1c-2.5-0.8-5.1-1.7-7.6-2.6c-1.1-0.4-2.1-0.8-3.2-1.2
			c-1.7-0.6-3.4-1.3-5-1.9c-1.1-0.4-2.3-0.9-3.4-1.3c-0.9-0.4-1.8-0.7-2.7-1.1c-4.5-1.8-8.9-3.7-13.3-5.7c-1.5-0.7-2.9-1.3-4.4-2
			c-2.9-1.3-5.7-2.7-8.6-4.1c-0.6-0.3-1.1-0.6-1.7-0.8c-5.3-2.6-10.6-5.3-15.8-8.1c-1.4-0.8-2.9-1.5-4.3-2.3c-0.3-0.2-0.7-0.4-1-0.5
			c-1.8-1-3.6-2-5.4-3c-1.1-0.6-2.2-1.2-3.3-1.9c-1.6-0.9-3.2-1.8-4.7-2.7c-0.1-0.1-0.2-0.1-0.3-0.2c-1-0.6-2-1.1-3-1.7
			c-3.2-1.9-6.3-3.8-9.4-5.7c-2-1.2-3.9-2.4-5.9-3.7c-1-0.6-2.1-1.3-3.1-1.9c-6.4-4.1-12.7-8.2-18.8-12.4c-2.6-1.7-5.1-3.5-7.6-5.2
			c-1.3-0.9-2.5-1.7-3.7-2.6c-7.8-5.5-15.4-11.1-22.6-16.5c-1.2-0.9-2.5-1.9-3.7-2.8c-3.7-2.8-7.3-5.6-10.8-8.4
			c-0.6-0.5-1.2-0.9-1.8-1.4c-3.1-2.5-6.2-4.9-9.1-7.3c-2-1.6-3.9-3.2-5.8-4.8s-3.8-3.1-5.6-4.6c-3.1-2.6-6.1-5.1-8.9-7.6
			c-0.3-0.3-0.7-0.6-1.1-1c-0.2-0.2-0.4-0.4-0.7-0.6c-0.4-0.3-0.7-0.6-1.1-1l223.8,206.3c0,0,0,0,0,0
			c-2.4,0.4-102.6,16.7-210.6-36.5c-89-43.8-200.4-161.4-227.3-190.6c-3.9-4.2-6-6.6-6-6.6l-61.7-71.2l-272-313.8
			c0,0-0.1-0.1-0.1-0.1c-0.1-0.2-0.2-0.2-0.2-0.2s356.1-40.3,513.3-167.6c142.3-115.3,92.5-300.1,92.5-300.1l690-864.4L2581,230.1
			c0,0,120.3,110.9,120.6,302.4c0.2,157.2-92.3,283.3-160.1,354.6c-32.7,34.4-59.6,56-67.7,62.3l98.1-73.3c0.6-0.5,1-0.7,1-0.8
			c0,0,0.1-0.1,0.1-0.1l220.4-164.7c0,0,32,109.7-3.1,290.2c-29.2,150.4-167.6,255.3-239.2,300.5l0,0c-14.1,8.9-25.5,15.4-33.1,19.6
			c-5.8,3.2-9.3,5-9.9,5.3l329.8-128c0,0,14.5,147.6-84,254.3C2673.5,1539.9,2536.8,1602.4,2489.9,1622.2
			C2489.9,1622.2,2489.9,1622.2,2489.9,1622.2z"/>
		<path class="st3" d="M2701.6,532.5c0.2,157.2-92.3,283.3-160.1,354.6c-37.3,35.3-68.9,63-70.1,64.1c0,0,0,0,0,0l-791.7,598
			c1.4-8.1,350.7-558,574.6-909.8L2581,230.1C2581,230.1,2701.3,341,2701.6,532.5z"/>
		<path class="st4" d="M2790.5,1000.7c-35,179.9-226.2,294.8-272.3,320.1l-831.1,324l-7.4-95.5c0,0,858.2-647.5,892.3-673.1
			c0.6-0.5,1-0.7,1-0.8c0,0,0.1-0.1,0.1-0.1l220.4-164.7C2793.6,710.5,2825.6,820.2,2790.5,1000.7z"/>
		<path class="st5" d="M2754.1,1452.4c-84.6,94.7-233.6,156.6-280.5,176.4c0,0,0,0,0,0l-787.5,118.9l1-103
			c0,0,838.7-328.2,831.1-324c-5.8,3.2-9.3,5-9.9,5.3l329.8-128C2838.1,1198.1,2854.9,1339.5,2754.1,1452.4z"/>
		<path class="st6" d="M2754.1,1587.1c0,0-27.2,148.1-117.9,219.9c-138.6,109.8-314.2,97.9-314.2,97.9l26.5,3.6l-681.8-70.8l19.3-90
			l996.8-150.1l0.8-0.1L2754.1,1587.1z"/>
		<path class="st7" d="M2618.8,1946.4c0,0-69.6,100.5-216.9,146.7c-51.4,16.1-105.8,20.1-154.9,18.4
			c-64.5-4.7-116.3-15.2-116.3-15.2s-27.7-5.4-51.8-13.1c-18.9-6-391.8-120.7-391.8-120.7l-161.4-50.3c0,0,68.4-23.7,96.3-41.6
			c27.9-17.9,44.8-33,44.8-33l690.8,72L2618.8,1946.4z"/>
		<path class="st8" d="M2437.7,2195.2c0,0-79.1,68.7-193.5,92.5c-1.1,0.2-2.2,0.4-3.3,0.7c-91.1,18.1-177.9,2.6-240.1-16.4
			c-28.5-8.7-51.8-18.1-68-25.4l32.1,18.7c-7.9-3.4-15.1-7.1-21.5-10.5c-7.1-3.8-13.1-7.3-17.5-10c-4.8-3-7.7-5-8.1-5.2c0,0,0,0,0,0
			l-0.1-0.1l-532.4-292.7l140.4-34.4c0,0,559.9,173.2,559.2,173c-0.1,0-0.2-0.1-0.3-0.1L2437.7,2195.2z"/>
		<path class="st3" d="M2005,2440.8c-133.5,0-234.7-64.8-266.1-87.5l59,44.9l0.2,0.1l16.8,12.8l-250.5-183.3L1226,1964.8l159.3-18.1
			l541.3,296.3l6.1,3.6l32.1,18.7l217.7,126.7C2182.6,2391.9,2105,2440.8,2005,2440.8z"/>
		<path class="st4" d="M1958.2,2520.3c0,0-84.3,22.7-195,3.7c-95.7-16.4-195.6-92.3-249-138.3c-0.2-0.2-0.4-0.4-0.7-0.6
			c-35.9-31.3-66.7-57.8-66.7-57.8L1096,1971.9l130-7.1l571.8,433.4l0.2,0.1l16.8,12.8l0.1,0.1L1958.2,2520.3z"/>
		<path class="st5" d="M1736.3,2590.5C1736.3,2590.5,1736.3,2590.5,1736.3,2590.5c-2.5,0.2-84.2,22.4-210.6-36.4
			c-89-43.8-200.4-161.4-227.3-190.6c-3.9-4.2-6-6.6-6-6.6l-61.7-71.2l-277.9-313.3c0,0,5.8-0.5,5.8-0.5c-0.1-0.2-0.2-0.2-0.2-0.2
			l137.5,0.3c0,0,0.4,0.4,1.2,1.2c8.3,8.4,57.7,58.8,116.4,117.9c0.1,0.1,0.2,0.2,0.2,0.2c56.9,57.3,122.6,122.8,168.1,166.3
			c47,45,159.5,151.3,133.4,129c-0.3-0.3-0.7-0.6-1.1-1c-0.2-0.2-0.4-0.4-0.7-0.6c-0.4-0.3-0.7-0.6-1.1-1L1736.3,2590.5z"/>
		<path class="st9" d="M958.5,1971.6c0,0,353.4-53,478.8-144.4c181.3-132.2,127.1-323.3,127.1-323.3l777-975.4l-661.6,1020.8
			c0,0,40,232.3-12.9,288.5c-61,64.7-257.6,110.3-356.5,119.9C1096.2,1978.6,958.5,1971.6,958.5,1971.6z"/>
		<path class="st9" d="M1525.7,2652.6c0,0-165.8,13.6-288.2-41.5c-122.4-55.1-188.1-93-286.8-196.4
			c-98.7-103.4-236.1-164.6-321.6-121.1c-7.7,3.9-14.4,8.6-20.2,13.9c-58.8,53.4-28.8,168-28.5,168.9c0,0-0.1,0-0.1,0
			c-2.1-0.9-30.4-14.3-58.1-49.8c0,0-0.1-0.1-0.1-0.1c-11.6-14.9-23.2-33.7-32.6-57.2c-4.3-10.6-8.1-22.1-11.3-34.6
			c-28.1-109-9-298.6,162.5-365.9c171.5-67.4,317.8,2.8,317.8,2.8l340,391.9c0,0,41.4,109.7,98.7,169.1
			C1454.5,2592,1525.7,2652.6,1525.7,2652.6z"/>
		<path class="st11" d="M594.5,2257.8c2.5,13.3,8.2,31.8,14.4,49.8c-58.8,53.4-28.8,168-28.5,168.9c0,0-0.1,0-0.1,0
			c-2.1-1.1-31.2-16.6-58.1-49.8c0,0-0.1-0.1-0.1-0.1c-12.3-15.2-24.1-34.2-32.6-57.2c-5.1-13.7-9-28.9-11.1-45.5
			C464.7,2216,613.2,2170,613.2,2170S587.8,2222.1,594.5,2257.8z"/>
		<path class="st5" d="M1418.5,2651.9c0,0,70.6,105,195,166.5c124.4,61.5,185.9,56.6,235.7,46.4c49.8-10.2,58.5-31.1,58.5-31.1
			l-382-181.1L1418.5,2651.9z"/>
		<path class="st6" d="M1291.7,2630.6c0,0,62.8,101.8,123.5,168.4c52.6,57.7,107.1,90.2,152.7,100.4c61.5,13.7,119.2,5.8,119.2,5.8
			s-123.6-115.2-123.6-115.2c0,0-145-138.2-145-138.2L1291.7,2630.6z"/>
		<path class="st7" d="M1203.5,2595.5l99.5,35.1l95.6,149.3l111,155.1c0,0-72.5,16.5-139.5-43.3
			C1264.6,2797.8,1203.5,2595.5,1203.5,2595.5z"/>
		<path class="st3" d="M953.3,1970.7l38.1-42.5l580-378.9c0,0,6.1,178.6-104.6,258.7C1266.4,1952.9,953.3,1970.7,953.3,1970.7z"/>
	</g>
</g>
</svg>
