<svg xmlns="http://www.w3.org/2000/svg" width="36" height="36" viewBox="0 0 36 36" fill="none">
  <path d="M15.0005 24H7.50049V31.5M21.0005 12H28.5005V4.5M6.875 13.5047C7.71603 11.4231 9.12415 9.61919 10.9393 8.29797C12.7545 6.97676 14.9045 6.19128 17.1439 6.03076C19.3832 5.87024 21.6224 6.34111 23.6074 7.38992C25.5925 8.43874 27.2425 10.0234 28.3718 11.9638M29.1268 22.4952C28.2858 24.5769 26.8777 26.3808 25.0625 27.702C23.2473 29.0232 21.0982 29.8088 18.8589 29.9693C16.6195 30.1298 14.3796 29.6589 12.3945 28.61C10.4095 27.5612 8.75872 25.9766 7.62939 24.0363" stroke="#2C6EFF" stroke-width="2" stroke-linecap="round" stroke-linejoin="round"/>
</svg>