<?xml version="1.0" standalone="no"?>
<!DOCTYPE svg PUBLIC "-//W3C//DTD SVG 20010904//EN"
 "http://www.w3.org/TR/2001/REC-SVG-20010904/DTD/svg10.dtd">
<svg version="1.0" xmlns="http://www.w3.org/2000/svg"
 width="640.000000pt" height="640.000000pt" viewBox="0 0 640.000000 640.000000"
 preserveAspectRatio="xMidYMid meet">

<g transform="translate(0.000000,640.000000) scale(0.100000,-0.100000)"
fill="#000000" stroke="none">
<path d="M1877 5133 c-4 -3 -7 -154 -7 -335 l0 -328 -310 0 -310 0 0 -1275 0
-1275 310 0 310 0 0 -322 c0 -178 4 -329 8 -336 7 -10 314 -12 1503 -10 l1494
3 3 1943 2 1942 -1498 0 c-824 0 -1502 -3 -1505 -7z m2331 -1000 l2 -333 -807
-2 -808 -3 -3 -602 -2 -603 807 -2 808 -3 0 -328 0 -327 -805 0 -805 -1 -3
331 -2 330 -335 0 -335 0 0 605 0 605 335 0 335 0 0 328 c0 181 3 332 7 335 3
4 367 6 807 5 l801 -3 3 -332z"/>
</g>
</svg>
