<svg width="84" height="84" viewBox="0 0 84 84" fill="none" xmlns="http://www.w3.org/2000/svg">
<circle cx="42" cy="42" r="42" fill="#1D1336"/>
<path d="M24.0254 40.9466C24.0254 40.4411 24.4372 40.0312 24.9452 40.0312H58.9765C59.4845 40.0312 59.8963 40.4411 59.8963 40.9466C59.8963 41.4521 59.4845 41.8619 58.9765 41.8619H24.9452C24.4372 41.8619 24.0254 41.4521 24.0254 40.9466Z" fill="#E1147B"/>
<path d="M17.1272 44.974C17.1272 44.4685 17.539 44.0587 18.047 44.0587H42.8806C43.3886 44.0587 43.8004 44.4685 43.8004 44.974C43.8004 45.4796 43.3886 45.8894 42.8806 45.8894H18.047C17.539 45.8894 17.1272 45.4796 17.1272 44.974Z" fill="#E1147B"/>
<path d="M40.2133 56.1411C39.7053 56.1411 39.2935 56.5509 39.2935 57.0564C39.2935 57.5619 39.7053 57.9718 40.2133 57.9718H55.5734C56.0814 57.9718 56.4931 57.5619 56.4931 57.0564C56.4931 56.5509 56.0814 56.1411 55.5734 56.1411H40.2133Z" fill="#E1147B"/>
<path d="M29.9119 61.0839C29.9119 60.5784 30.3237 60.1686 30.8317 60.1686H46.0998C46.6078 60.1686 47.0196 60.5784 47.0196 61.0839C47.0196 61.5894 46.6078 61.9992 46.0998 61.9992H30.8317C30.3237 61.9992 29.9119 61.5894 29.9119 61.0839Z" fill="#E1147B"/>
<path d="M24.9452 48.0862C24.4372 48.0862 24.0254 48.496 24.0254 49.0015C24.0254 49.507 24.4372 49.9168 24.9452 49.9168H54.9296C55.4375 49.9168 55.8493 49.507 55.8493 49.0015C55.8493 48.496 55.4375 48.0862 54.9296 48.0862H24.9452Z" fill="#E1147B"/>
<path d="M18.8748 53.029C18.8748 52.5234 19.2865 52.1136 19.7945 52.1136H31.7515C32.2594 52.1136 32.6712 52.5234 32.6712 53.029C32.6712 53.5345 32.2594 53.9443 31.7515 53.9443H19.7945C19.2865 53.9443 18.8748 53.5345 18.8748 53.029Z" fill="#E1147B"/>
<path d="M35.2466 52.1136C34.7386 52.1136 34.3268 52.5234 34.3268 53.029C34.3268 53.5345 34.7386 53.9443 35.2466 53.9443H60.0802C60.5882 53.9443 61 53.5345 61 53.029C61 52.5234 60.5882 52.1136 60.0802 52.1136H35.2466Z" fill="#E1147B"/>
<path d="M22.7378 40.9466C22.7378 41.4521 22.326 41.8619 21.818 41.8619C21.31 41.8619 20.8982 41.4521 20.8982 40.9466C20.8982 40.4411 21.31 40.0312 21.818 40.0312C22.326 40.0312 22.7378 40.4411 22.7378 40.9466Z" fill="#E1147B"/>
<path d="M14.9198 45.8894C15.4277 45.8894 15.8395 45.4796 15.8395 44.974C15.8395 44.4685 15.4277 44.0587 14.9198 44.0587C14.4118 44.0587 14 44.4685 14 44.974C14 45.4796 14.4118 45.8894 14.9198 45.8894Z" fill="#E1147B"/>
<path d="M38.0059 57.0564C38.0059 57.5619 37.5941 57.9718 37.0861 57.9718C36.5781 57.9718 36.1663 57.5619 36.1663 57.0564C36.1663 56.5509 36.5781 56.1411 37.0861 56.1411C37.5941 56.1411 38.0059 56.5509 38.0059 57.0564Z" fill="#E1147B"/>
<path d="M27.7045 61.9992C28.2125 61.9992 28.6243 61.5894 28.6243 61.0839C28.6243 60.5784 28.2125 60.1686 27.7045 60.1686C27.1965 60.1686 26.7847 60.5784 26.7847 61.0839C26.7847 61.5894 27.1965 61.9992 27.7045 61.9992Z" fill="#E1147B"/>
<path d="M22.7378 49.0015C22.7378 49.507 22.326 49.9168 21.818 49.9168C21.31 49.9168 20.8982 49.507 20.8982 49.0015C20.8982 48.496 21.31 48.0862 21.818 48.0862C22.326 48.0862 22.7378 48.496 22.7378 49.0015Z" fill="#E1147B"/>
<path d="M16.6673 53.9443C17.1753 53.9443 17.5871 53.5345 17.5871 53.029C17.5871 52.5234 17.1753 52.1136 16.6673 52.1136C16.1593 52.1136 15.7476 52.5234 15.7476 53.029C15.7476 53.5345 16.1593 53.9443 16.6673 53.9443Z" fill="#E1147B"/>
<path d="M55.5574 31.0408C56.297 32.8176 56.6776 34.7221 56.6776 36.6453C56.6776 37.0497 56.3482 37.3776 55.9418 37.3776H27.9809C27.5746 37.3776 27.2451 37.0497 27.2451 36.6453C27.2451 34.7221 27.6258 32.8176 28.3653 31.0408C29.1049 29.2639 30.1889 27.6495 31.5554 26.2895C32.9219 24.9296 34.5442 23.8508 36.3297 23.1148C38.1151 22.3788 40.0288 22 41.9614 22C43.8939 22 45.8076 22.3788 47.593 23.1148C49.3785 23.8508 51.0008 24.9296 52.3673 26.2895C53.7338 27.6495 54.8178 29.2639 55.5574 31.0408Z" fill="#53CBC7"/>
</svg>
