<svg width="280" height="36" viewBox="0 0 280 36" fill="none" xmlns="http://www.w3.org/2000/svg">
<path d="M7.07446 25.2V9.49091H12.3675C13.5965 9.49091 14.601 9.71335 15.3812 10.1582C16.1665 10.598 16.7478 11.1937 17.1252 11.9454C17.5025 12.6972 17.6912 13.5358 17.6912 14.4614C17.6912 15.3869 17.5025 16.2281 17.1252 16.9849C16.7529 17.7417 16.1767 18.3452 15.3965 18.7952C14.6163 19.24 13.6169 19.4625 12.3981 19.4625H8.60425V17.775H12.3369C13.1783 17.775 13.854 17.6292 14.3639 17.3378C14.8738 17.0463 15.2436 16.6525 15.473 16.1565C15.7076 15.6554 15.8249 15.0903 15.8249 14.4614C15.8249 13.8324 15.7076 13.2699 15.473 12.7739C15.2436 12.2778 14.8713 11.8892 14.3563 11.6079C13.8412 11.3216 13.1579 11.1784 12.3063 11.1784H8.97141V25.2H7.07446ZM25.149 25.4455C24.0884 25.4455 23.1577 25.1923 22.3571 24.6861C21.5616 24.1798 20.9395 23.4716 20.4907 22.5614C20.0471 21.6511 19.8253 20.5875 19.8253 19.3705C19.8253 18.1431 20.0471 17.0719 20.4907 16.1565C20.9395 15.2412 21.5616 14.5304 22.3571 14.0241C23.1577 13.5179 24.0884 13.2648 25.149 13.2648C26.2096 13.2648 27.1376 13.5179 27.9332 14.0241C28.7337 14.5304 29.3558 15.2412 29.7996 16.1565C30.2483 17.0719 30.4727 18.1431 30.4727 19.3705C30.4727 20.5875 30.2483 21.6511 29.7996 22.5614C29.3558 23.4716 28.7337 24.1798 27.9332 24.6861C27.1376 25.1923 26.2096 25.4455 25.149 25.4455ZM25.149 23.8194C25.9546 23.8194 26.6175 23.6122 27.1376 23.198C27.6578 22.7839 28.0428 22.2392 28.2927 21.5642C28.5425 20.8892 28.6675 20.158 28.6675 19.3705C28.6675 18.583 28.5425 17.8491 28.2927 17.169C28.0428 16.4889 27.6578 15.9392 27.1376 15.5199C26.6175 15.1006 25.9546 14.8909 25.149 14.8909C24.3433 14.8909 23.6804 15.1006 23.1602 15.5199C22.6401 15.9392 22.2551 16.4889 22.0052 17.169C21.7554 17.8491 21.6304 18.583 21.6304 19.3705C21.6304 20.158 21.7554 20.8892 22.0052 21.5642C22.2551 22.2392 22.6401 22.7839 23.1602 23.198C23.6804 23.6122 24.3433 23.8194 25.149 23.8194ZM35.4903 25.2L31.9106 13.4182H33.8075L36.347 22.4386H36.4694L38.9782 13.4182H40.9058L43.3841 22.408H43.5064L46.0459 13.4182H47.9428L44.3631 25.2H42.5886L40.0186 16.1489H39.835L37.2649 25.2H35.4903ZM54.8555 25.4455C53.7236 25.4455 52.747 25.195 51.926 24.6938C51.1101 24.1875 50.4803 23.4819 50.0368 22.5767C49.5983 21.6664 49.3789 20.608 49.3789 19.4011C49.3789 18.1944 49.5983 17.1307 50.0368 16.2102C50.4803 15.2847 51.0974 14.5636 51.8877 14.0472C52.6832 13.5256 53.6114 13.2648 54.6721 13.2648C55.284 13.2648 55.8881 13.367 56.4848 13.5716C57.0814 13.7761 57.6244 14.1085 58.1141 14.5687C58.6035 15.0239 58.9936 15.6273 59.2844 16.379C59.575 17.1307 59.7204 18.0562 59.7204 19.1556V19.9228H50.6639V18.358H57.8845C57.8845 17.6932 57.752 17.1 57.4867 16.5784C57.2268 16.0568 56.8545 15.6452 56.3701 15.3435C55.8906 15.0417 55.3247 14.8909 54.6721 14.8909C53.953 14.8909 53.3309 15.0699 52.8057 15.4278C52.2855 15.7807 51.8852 16.2409 51.6048 16.8085C51.3243 17.3761 51.1841 17.9847 51.1841 18.6341V19.6772C51.1841 20.567 51.337 21.3214 51.6431 21.94C51.9541 22.5536 52.3849 23.0216 52.9356 23.3438C53.4865 23.6608 54.1264 23.8194 54.8555 23.8194C55.3297 23.8194 55.7582 23.7528 56.1405 23.62C56.5282 23.4819 56.8621 23.2772 57.1426 23.0062C57.423 22.73 57.6398 22.3875 57.7928 21.9784L59.5367 22.4694C59.3531 23.0625 59.0446 23.5841 58.6113 24.0341C58.1778 24.4789 57.6423 24.8267 57.005 25.0772C56.3676 25.3228 55.651 25.4455 54.8555 25.4455ZM62.4663 25.2V13.4182H64.2103V15.1977H64.3327C64.5468 14.6148 64.9343 14.1417 65.4953 13.7787C66.0562 13.4156 66.6886 13.2341 67.3922 13.2341C67.5248 13.2341 67.6905 13.2366 67.8894 13.2417C68.0883 13.2469 68.2387 13.2545 68.3406 13.2648V15.1057C68.2794 15.0903 68.1392 15.0673 67.9199 15.0366C67.7058 15.0009 67.4789 14.9829 67.2392 14.9829C66.6681 14.9829 66.1581 15.1031 65.7094 15.3435C65.2659 15.5787 64.9139 15.906 64.6538 16.3253C64.3989 16.7395 64.2715 17.2125 64.2715 17.7443V25.2H62.4663ZM75.0487 25.4455C73.9168 25.4455 72.9402 25.195 72.1192 24.6938C71.3034 24.1875 70.6735 23.4819 70.23 22.5767C69.7915 21.6664 69.5721 20.608 69.5721 19.4011C69.5721 18.1944 69.7915 17.1307 70.23 16.2102C70.6735 15.2847 71.2906 14.5636 72.081 14.0472C72.8765 13.5256 73.8046 13.2648 74.8653 13.2648C75.4772 13.2648 76.0814 13.367 76.678 13.5716C77.2747 13.7761 77.8176 14.1085 78.3073 14.5687C78.7968 15.0239 79.1868 15.6273 79.4776 16.379C79.7682 17.1307 79.9136 18.0562 79.9136 19.1556V19.9228H70.8572V18.358H78.0777C78.0777 17.6932 77.9453 17.1 77.68 16.5784C77.42 16.0568 77.0478 15.6452 76.5633 15.3435C76.0839 15.0417 75.5179 14.8909 74.8653 14.8909C74.1462 14.8909 73.5241 15.0699 72.9989 15.4278C72.4787 15.7807 72.0784 16.2409 71.7981 16.8085C71.5175 17.3761 71.3773 17.9847 71.3773 18.6341V19.6772C71.3773 20.567 71.5303 21.3214 71.8363 21.94C72.1474 22.5536 72.5782 23.0216 73.1289 23.3438C73.6797 23.6608 74.3196 23.8194 75.0487 23.8194C75.523 23.8194 75.9514 23.7528 76.3337 23.62C76.7215 23.4819 77.0553 23.2772 77.3359 23.0062C77.6162 22.73 77.8331 22.3875 77.986 21.9784L79.73 22.4694C79.5463 23.0625 79.2378 23.5841 78.8045 24.0341C78.371 24.4789 77.8356 24.8267 77.1982 25.0772C76.5608 25.3228 75.8443 25.4455 75.0487 25.4455ZM87.0959 25.4455C86.1168 25.4455 85.2525 25.1975 84.5029 24.7014C83.7534 24.2003 83.1669 23.4947 82.7437 22.5844C82.3204 21.6691 82.1088 20.5875 82.1088 19.3397C82.1088 18.1022 82.3204 17.0284 82.7437 16.1182C83.1669 15.2079 83.7559 14.5048 84.5105 14.0088C85.2653 13.5128 86.1372 13.2648 87.1264 13.2648C87.8914 13.2648 88.4956 13.3926 88.9393 13.6483C89.3881 13.8989 89.7297 14.1852 89.9643 14.5074C90.2039 14.8244 90.39 15.0852 90.5227 15.2898H90.6756V9.49091H92.4808V25.2H90.7368V23.3897H90.5227C90.39 23.6045 90.2014 23.8756 89.9565 24.2028C89.7119 24.525 89.3626 24.8139 88.9087 25.0697C88.4549 25.3202 87.8505 25.4455 87.0959 25.4455ZM87.3406 23.8194C88.0648 23.8194 88.6767 23.63 89.1765 23.2517C89.6762 22.8681 90.056 22.3389 90.3161 21.6639C90.5762 20.9839 90.7061 20.1989 90.7061 19.3091C90.7061 18.4295 90.5787 17.6599 90.3238 17.0003C90.0687 16.3355 89.6914 15.819 89.1917 15.4508C88.692 15.0775 88.0749 14.8909 87.3406 14.8909C86.5757 14.8909 85.9384 15.0878 85.4284 15.4815C84.9237 15.8702 84.5437 16.3994 84.2888 17.0693C84.0389 17.7341 83.914 18.4806 83.914 19.3091C83.914 20.1478 84.0415 20.9097 84.2963 21.595C84.5564 22.275 84.9389 22.817 85.4437 23.2211C85.9536 23.62 86.586 23.8194 87.3406 23.8194ZM102.34 25.2V9.49091H104.145V15.2898H104.298C104.431 15.0852 104.614 14.8244 104.849 14.5074C105.089 14.1852 105.43 13.8989 105.874 13.6483C106.323 13.3926 106.93 13.2648 107.694 13.2648C108.684 13.2648 109.556 13.5128 110.31 14.0088C111.065 14.5048 111.654 15.2079 112.077 16.1182C112.501 17.0284 112.712 18.1022 112.712 19.3397C112.712 20.5875 112.501 21.6691 112.077 22.5844C111.654 23.4947 111.068 24.2003 110.318 24.7014C109.569 25.1975 108.704 25.4455 107.725 25.4455C106.97 25.4455 106.366 25.3202 105.912 25.0697C105.458 24.8139 105.109 24.525 104.864 24.2028C104.62 23.8756 104.431 23.6045 104.298 23.3897H104.084V25.2H102.34ZM104.115 19.3091C104.115 20.1989 104.245 20.9839 104.505 21.6639C104.765 22.3389 105.145 22.8681 105.645 23.2517C106.144 23.63 106.756 23.8194 107.48 23.8194C108.235 23.8194 108.865 23.62 109.37 23.2211C109.88 22.817 110.262 22.275 110.517 21.595C110.777 20.9097 110.907 20.1478 110.907 19.3091C110.907 18.4806 110.78 17.7341 110.525 17.0693C110.275 16.3994 109.895 15.8702 109.385 15.4815C108.88 15.0878 108.245 14.8909 107.48 14.8909C106.746 14.8909 106.129 15.0775 105.629 15.4508C105.13 15.819 104.752 16.3355 104.497 17.0003C104.242 17.6599 104.115 18.4295 104.115 19.3091ZM116.215 29.6181C115.909 29.6181 115.637 29.5925 115.397 29.5414C115.157 29.4955 114.992 29.4494 114.9 29.4034L115.359 27.808C115.797 27.9205 116.185 27.9614 116.521 27.9306C116.858 27.9 117.156 27.7492 117.416 27.4781C117.682 27.2122 117.924 26.78 118.143 26.1819L118.48 25.2614L114.135 13.4182H116.093L119.336 22.8069H119.459L122.702 13.4182H124.66L119.673 26.9181C119.448 27.5267 119.171 28.0303 118.839 28.4292C118.508 28.8333 118.123 29.1325 117.684 29.3267C117.251 29.5211 116.761 29.6181 116.215 29.6181Z" fill="#A1A1A9"/>
<path d="M150.012 8.94937e-07C148.657 0.00674314 147.318 0.281151 146.069 0.8076C144.82 1.33405 143.687 2.10227 142.734 3.06826C141.781 4.03425 141.027 5.17916 140.515 6.43759C140.003 7.69603 139.743 9.04333 139.75 10.4026V13.8386H148.088V8.86048C148.088 8.6267 148.134 8.39518 148.223 8.17916C148.312 7.96315 148.442 7.76687 148.607 7.60154C148.772 7.43621 148.967 7.30512 149.183 7.21566C149.398 7.12622 149.629 7.08019 149.862 7.08025H150.162C150.395 7.08019 150.626 7.12622 150.841 7.21566C151.056 7.30512 151.252 7.43621 151.417 7.60154C151.581 7.76687 151.712 7.96315 151.801 8.17916C151.89 8.39518 151.936 8.62668 151.936 8.86048V22.2057C153.031 22.2057 154.115 21.9893 155.127 21.5689C156.139 21.1484 157.058 20.5321 157.832 19.755C158.606 18.9781 159.22 18.0558 159.639 17.0406C160.058 16.0255 160.274 14.9374 160.274 13.8386V10.4026C160.28 7.64858 159.199 5.00418 157.268 3.04735C156.321 2.0817 155.191 1.31496 153.945 0.791782C152.7 0.268603 151.362 -0.000566429 150.012 8.94937e-07Z" fill="#A1A1A9"/>
<path d="M150.163 28.9626H149.862C149.629 28.9626 149.398 28.9167 149.183 28.8272C148.968 28.7377 148.772 28.6065 148.608 28.4413C148.443 28.276 148.312 28.0798 148.223 27.8638C148.134 27.6478 148.088 27.4164 148.088 27.1825V13.8375C146.993 13.8374 145.909 14.0538 144.897 14.4742C143.886 14.8946 142.967 15.5109 142.192 16.2879C141.418 17.0649 140.804 17.9873 140.385 19.0024C139.966 20.0176 139.75 21.1057 139.751 22.2045V25.5928C139.737 26.9539 139.992 28.3043 140.501 29.5661C141.011 30.8277 141.764 31.9754 142.719 32.9429C143.673 33.9104 144.809 34.6785 146.061 35.2026C147.313 35.7268 148.656 35.9966 150.012 35.9966C151.369 35.9966 152.712 35.7268 153.964 35.2026C155.216 34.6785 156.352 33.9104 157.306 32.9429C158.26 31.9754 159.014 30.8277 159.524 29.5661C160.033 28.3043 160.288 26.9539 160.274 25.5928V22.2045H151.937V27.1825C151.937 27.4164 151.891 27.6478 151.802 27.8638C151.712 28.0798 151.582 28.276 151.417 28.4413C151.252 28.6067 151.057 28.7377 150.841 28.8272C150.626 28.9167 150.396 28.9626 150.163 28.9626Z" fill="#A1A1A9"/>
<path d="M174.526 10.5609H171.603V25.4376H180.18V22.6328H174.526L174.526 10.5609Z" fill="#A1A1A9"/>
<path d="M189.542 16.0693C189.129 15.5553 188.601 15.1467 188.002 14.877C187.401 14.6073 186.746 14.4843 186.089 14.5179C185.403 14.5125 184.724 14.6549 184.097 14.9355C183.471 15.216 182.911 15.6282 182.457 16.1442C181.482 17.2409 180.943 18.6594 180.943 20.1291C180.943 21.5989 181.482 23.0175 182.457 24.1141C182.911 24.6299 183.471 25.042 184.097 25.3224C184.724 25.6028 185.403 25.7451 186.089 25.7396C187.571 25.7396 188.722 25.2225 189.542 24.1882V25.4423H192.274V14.8163H189.542V16.0693ZM188.706 22.286C188.429 22.5628 188.101 22.7801 187.738 22.9244C187.376 23.0686 186.988 23.137 186.598 23.1253C186.209 23.1377 185.823 23.0697 185.462 22.9254C185.101 22.7808 184.775 22.5632 184.501 22.286C183.969 21.6941 183.675 20.9256 183.675 20.1287C183.675 19.3317 183.969 18.5631 184.501 17.9713C184.775 17.6943 185.101 17.4768 185.462 17.3324C185.823 17.188 186.209 17.1199 186.598 17.1322C186.988 17.1206 187.376 17.1891 187.738 17.3334C188.101 17.4777 188.429 17.6947 188.706 17.9713C189.242 18.5602 189.542 19.3299 189.542 20.1287C189.542 20.9274 189.242 21.6972 188.706 22.286Z" fill="#A1A1A9"/>
<path d="M199.312 21.9569L196.55 14.8148H193.563L197.903 25.1013C197.722 25.7151 197.364 26.262 196.876 26.674C196.363 27.0234 195.747 27.1883 195.13 27.142V29.6926C196.334 29.8046 197.54 29.4759 198.524 28.7672C199.432 28.0789 200.163 26.9762 200.714 25.4592L204.575 14.8155H201.651L199.312 21.9569Z" fill="#A1A1A9"/>
<path d="M210.486 14.5158C209.741 14.4896 208.998 14.6186 208.305 14.8949C207.614 15.1711 206.985 15.5886 206.461 16.1209C205.451 17.2114 204.891 18.6468 204.894 20.1363C204.898 21.6258 205.465 23.0582 206.483 24.1434C207.542 25.2058 208.945 25.737 210.697 25.7373C212.729 25.7373 214.269 24.9793 215.314 23.4637L213.112 22.1881C212.832 22.5448 212.469 22.8278 212.056 23.013C211.643 23.1981 211.191 23.2796 210.739 23.2508C209.116 23.2508 208.12 22.585 207.754 21.2533H215.738C215.806 20.8816 215.842 20.5044 215.843 20.1264C215.883 18.6462 215.339 17.2101 214.329 16.131C213.84 15.6027 213.244 15.1854 212.58 14.9068C211.918 14.6283 211.204 14.495 210.486 14.5158ZM207.711 19.1279C207.833 18.5035 208.17 17.9423 208.664 17.5441C209.19 17.1542 209.832 16.9556 210.484 16.9811C211.081 16.9733 211.665 17.1598 212.148 17.5128C212.661 17.9093 213.006 18.4864 213.112 19.1275L207.711 19.1279Z" fill="#A1A1A9"/>
<path d="M220.482 16.637V14.8088H217.75V25.4352H220.482V20.356C220.482 19.3359 220.81 18.6062 221.467 18.1668C222.124 17.7274 222.919 17.5459 223.702 17.6567V14.5972C223.014 14.5884 222.338 14.7645 221.742 15.1072C221.153 15.4499 220.706 15.9925 220.482 16.637Z" fill="#A1A1A9"/>
<path d="M237.022 12.8617V10.5609H227.306V13.3664H233.321L227.148 23.0947V25.4372H237.141V22.6325H230.851L237.022 12.8617Z" fill="#A1A1A9"/>
<path d="M243.59 14.5159C242.845 14.4896 242.104 14.6186 241.411 14.8949C240.718 15.1711 240.09 15.5886 239.567 16.1209C238.555 17.2114 237.995 18.6467 237.999 20.1364C238.004 21.6259 238.571 23.0582 239.587 24.1434C240.646 25.2058 242.052 25.7369 243.802 25.7373C245.835 25.7373 247.374 24.9793 248.418 23.4637L246.216 22.1881C245.936 22.5448 245.575 22.8278 245.16 23.0128C244.748 23.198 244.297 23.2796 243.845 23.2508C242.22 23.2508 241.226 22.585 240.858 21.2533H248.844C248.91 20.8814 248.946 20.5043 248.948 20.1263C248.989 18.6462 248.445 17.2101 247.435 16.131C246.945 15.6027 246.349 15.1853 245.686 14.9068C245.024 14.6283 244.31 14.495 243.59 14.5159ZM240.817 19.1279C240.937 18.5035 241.274 17.9422 241.77 17.5441C242.296 17.1541 242.937 16.9554 243.59 16.9811C244.188 16.9731 244.771 17.1597 245.254 17.5127C245.767 17.9092 246.11 18.4864 246.216 19.1275L240.817 19.1279Z" fill="#A1A1A9"/>
<path d="M253.588 16.644V14.8158H250.854V25.4423H253.588V20.363C253.588 19.343 253.914 18.6132 254.571 18.1739C255.228 17.7345 256.024 17.5529 256.806 17.6638V14.6042C256.119 14.5955 255.442 14.7716 254.848 15.1142C254.259 15.4568 253.812 15.9995 253.588 16.644Z" fill="#A1A1A9"/>
<path d="M263.033 14.5139C261.751 14.5281 260.515 14.9871 259.531 15.813C258.549 16.6388 257.881 17.7806 257.641 19.0444C257.402 20.3082 257.607 21.6162 258.219 22.7463C258.831 23.8763 259.814 24.7587 261.003 25.2438C262.189 25.7287 263.509 25.7863 264.733 25.4068C265.957 25.0272 267.014 24.234 267.721 23.1617C268.43 22.0894 268.746 20.8044 268.619 19.5244C268.489 18.2445 267.922 17.0487 267.016 16.1402C266.497 15.61 265.878 15.1919 265.192 14.9122C264.508 14.6325 263.772 14.4969 263.033 14.5139ZM265.088 22.2288C264.821 22.5002 264.499 22.7137 264.146 22.8561C263.792 22.9984 263.415 23.0667 263.033 23.0566C262.654 23.0674 262.277 22.9995 261.925 22.857C261.574 22.7146 261.254 22.5007 260.988 22.2288C260.464 21.6544 260.173 20.9036 260.173 20.1246C260.173 19.3457 260.464 18.5949 260.988 18.0205C261.254 17.7487 261.574 17.5349 261.925 17.3924C262.277 17.2499 262.654 17.1819 263.033 17.1926C263.415 17.1826 263.792 17.251 264.146 17.3934C264.499 17.5357 264.821 17.7492 265.088 18.0205C265.619 18.5917 265.914 19.3435 265.914 20.1246C265.914 20.9056 265.619 21.6576 265.088 22.2288Z" fill="#A1A1A9"/>
<path d="M274.37 22.1625H271.044V25.4354H274.37V22.1625Z" fill="#A1A1A9"/>
</svg>