<svg width="37" height="36" viewBox="0 0 37 36" fill="none" xmlns="http://www.w3.org/2000/svg">
<path id="Vector" d="M18.5 0C28.4514 0 36.5 8.04857 36.5 18C36.5 27.9514 28.4514 36 18.5 36C8.54857 36 0.5 27.9514 0.5 18C0.5 8.04857 8.54857 0 18.5 0ZM15.2086 27.4886C23.18 27.4886 27.5514 20.88 27.5514 15.1457V14.58C28.4 13.9629 29.1457 13.1914 29.7114 12.3171C28.94 12.6514 28.0914 12.8829 27.2171 13.0114C28.1171 12.4714 28.8114 11.6229 29.12 10.62C28.2714 11.1086 27.3457 11.4686 26.3686 11.6743C25.5714 10.8257 24.44 10.3114 23.2057 10.3114C20.8143 10.3114 18.86 12.2657 18.86 14.6571C18.86 14.9914 18.8857 15.3257 18.9886 15.6343C15.3886 15.4543 12.1743 13.7314 10.04 11.1086C9.68 11.7514 9.44857 12.4971 9.44857 13.2943C9.44857 14.7857 10.22 16.1229 11.3771 16.8943C10.6571 16.8943 9.98857 16.6886 9.42286 16.3543V16.4057C9.42286 18.5143 10.9143 20.2629 12.8943 20.6743C12.5343 20.7771 12.1486 20.8286 11.7629 20.8286C11.48 20.8286 11.2229 20.8029 10.94 20.7514C11.48 22.4743 13.1 23.7343 14.9771 23.76C13.4857 24.9171 11.6086 25.6114 9.57714 25.6114C9.21714 25.6114 8.88286 25.6114 8.54857 25.56C10.4514 26.7943 12.74 27.5143 15.1829 27.5143" fill="#18181B"/>
</svg>
